<svg width="176" height="120" viewBox="0 0 176 120" fill="none" xmlns="http://www.w3.org/2000/svg">
<g clip-path="url(#clip0_136_9330)">
<path fill-rule="evenodd" clip-rule="evenodd" d="M104.197 1.39453V5.3181L104.202 5.32814H105.219V3.66237C105.219 3.51185 105.259 3.39144 105.338 3.30614C105.418 3.21583 105.523 3.17569 105.663 3.17569C105.802 3.17569 105.907 3.21583 105.982 3.30113C106.056 3.38642 106.091 3.50684 106.091 3.65736V5.32312H107.108V3.44663C107.108 3.23088 107.069 3.04022 106.984 2.86963C106.899 2.69904 106.779 2.57361 106.625 2.47828C106.47 2.38295 106.296 2.33779 106.086 2.33779C105.877 2.33779 105.692 2.38797 105.538 2.49333C105.383 2.5987 105.274 2.7442 105.209 2.92984H105.179V1.39453H104.197ZM95.6663 5.12746C95.6663 5.85498 95.7809 6.47713 96.0053 6.99893C96.2297 7.51572 96.5487 7.91209 96.9725 8.18303C97.3963 8.45396 97.8949 8.58943 98.4732 8.58943C99.0516 8.58943 99.5501 8.45396 99.9739 8.18303C100.398 7.91209 100.717 7.51572 100.941 6.99893C101.165 6.48214 101.275 5.84996 101.275 5.12746C101.275 4.40496 101.165 3.78281 100.941 3.261C100.717 2.7392 100.393 2.34283 99.9739 2.07189C99.5551 1.80095 99.0565 1.66549 98.4732 1.66549C97.8899 1.66549 97.3913 1.80095 96.9725 2.07189C96.5537 2.34283 96.2297 2.73418 96.0053 3.25599C95.7809 3.77277 95.6663 4.39994 95.6663 5.12746ZM99.3357 6.7581C99.1268 7.11353 98.8385 7.29414 98.4707 7.29495C98.103 7.29414 97.8146 7.11353 97.6057 6.7581C97.3913 6.39685 97.2866 5.87003 97.2866 5.14753C97.2866 4.42503 97.3963 3.87814 97.6057 3.50685C97.8151 3.13557 98.1043 2.94491 98.4732 2.94491C98.8422 2.94993 99.1313 3.13557 99.3407 3.50685C99.5501 3.87814 99.6548 4.43005 99.6548 5.14753C99.6548 5.86501 99.5451 6.40187 99.3357 6.7581ZM94.0758 1.75573H92.0915L89.3145 6.12083V7.36011H92.5701V8.49404H94.0758V7.36011H94.8885V6.11079H94.0758V1.75573ZM92.5402 3.44156H92.595V6.11079H90.8849V6.0556L92.5402 3.44156ZM103.18 3.12047V4.37983C103.18 4.45007 103.2 4.50526 103.24 4.53536C103.279 4.56547 103.339 4.58052 103.424 4.58052C103.494 4.58052 103.598 4.5755 103.733 4.56547V5.32811C103.618 5.35319 103.459 5.36323 103.249 5.36824C102.891 5.36824 102.616 5.29298 102.437 5.1525C102.252 5.01201 102.168 4.78623 102.168 4.48519V3.12549H101.789V2.38292H102.168V1.68049H103.185V2.38292H103.698V3.12549H103.185L103.18 3.12047ZM111.077 1.75573H113.166L115.435 8.49404H113.739L113.286 7.04904H110.952L110.499 8.49404H108.799L111.072 1.75573H111.077ZM112.149 3.42149H112.094L111.336 5.83986H112.907L112.149 3.42149ZM117.763 4.53534L120.485 8.49404H121.826V1.75573H120.256V5.71442H120.201L117.509 1.75573H116.147V8.49404H117.718V4.53534H117.763ZM127.181 8.49404L124.459 4.53534H124.414V8.49404H122.843V1.75573H124.204L126.897 5.71442H126.951V1.75573H128.522V8.49404H127.181ZM129.539 1.75573V8.49404H131.11V1.75573H129.539ZM135.163 6.72793L136.689 1.75573H138.449L136.18 8.49404H134.091L131.818 1.75573H133.582L135.108 6.72793H135.163ZM143.798 3.05021V1.75573H139.166V8.49905H143.808V7.20458H140.737V5.76961H143.559V4.47514H140.737V3.05021H143.798ZM147.542 1.75573C148.041 1.75573 148.475 1.84604 148.839 2.02667C149.203 2.20729 149.487 2.4682 149.681 2.80436C149.876 3.14052 149.975 3.53689 149.975 3.98845C149.975 4.45005 149.881 4.8414 149.681 5.17255C149.482 5.50369 149.193 5.74954 148.819 5.92013L150.22 8.49404H148.49L147.258 6.17602H146.381V8.49404H144.81V1.75573H147.542ZM148.345 3.98845C148.345 3.67236 148.25 3.43654 148.056 3.27599C147.862 3.11543 147.582 3.04017 147.208 3.04017H146.376V4.91165H147.208C147.966 4.91666 148.345 4.6106 148.345 3.98845ZM152.713 3.16064C152.882 3.0352 153.121 2.97499 153.435 2.97499V2.96998C153.75 2.96998 153.999 3.04022 154.178 3.17569C154.358 3.31116 154.458 3.50683 154.477 3.75268H155.993C155.993 3.34126 155.883 2.97499 155.674 2.6589C155.465 2.34281 155.166 2.09696 154.782 1.92135C154.398 1.74574 153.939 1.66045 153.44 1.66045C152.942 1.66045 152.488 1.74574 152.094 1.92135C151.7 2.09696 151.391 2.34281 151.167 2.6589C150.943 2.97499 150.833 3.33624 150.833 3.74767C150.833 4.69595 151.451 5.3181 152.693 5.6091L153.396 5.77468C153.774 5.85997 154.049 5.96032 154.223 6.07572C154.398 6.19112 154.487 6.34665 154.487 6.53731C154.482 6.75808 154.383 6.93368 154.193 7.06414C154.004 7.19459 153.745 7.25981 153.416 7.25981C153.047 7.25981 152.752 7.17953 152.533 7.00894C152.314 6.83836 152.194 6.59752 152.174 6.27641H150.658C150.668 6.78316 150.788 7.20462 151.012 7.55082C151.237 7.89702 151.556 8.1529 151.97 8.32349C152.383 8.49408 152.872 8.58439 153.435 8.58439C153.989 8.58439 154.463 8.50412 154.861 8.33854C155.26 8.17297 155.564 7.93715 155.774 7.6311C155.988 7.32504 156.093 6.95877 156.093 6.53731C156.093 6.01049 155.913 5.58402 155.564 5.24785C155.215 4.91671 154.707 4.67588 154.049 4.53037L153.465 4.38989C153.141 4.31964 152.892 4.22431 152.723 4.10892C152.548 3.99352 152.463 3.84801 152.463 3.64732C152.463 3.44663 152.548 3.28607 152.713 3.16064ZM158.665 1.75573H160.754L163.023 8.49404H161.328L160.874 7.04904H158.541L158.087 8.49404H156.387L158.66 1.75573H158.665ZM159.737 3.42149H159.683L158.925 5.83986H160.495L159.737 3.42149ZM167.769 2.02667C167.405 1.84604 166.972 1.75573 166.473 1.75573H163.741V8.49404H165.311V6.17602H166.189L167.42 8.49404H169.15L167.749 5.92013C168.123 5.74954 168.412 5.50369 168.612 5.17255C168.811 4.8414 168.906 4.45005 168.906 3.98845C168.906 3.53689 168.806 3.14052 168.612 2.80436C168.417 2.4682 168.133 2.20729 167.769 2.02667ZM166.987 3.27599C167.181 3.43654 167.276 3.67236 167.276 3.98845C167.276 4.6106 166.897 4.91666 166.139 4.91165H165.306V3.04017H166.139C166.513 3.04017 166.792 3.11543 166.987 3.27599ZM172.361 4.58552H172.416L173.857 1.75573H175.617L173.174 6.21616V8.49905H171.603V6.21616L169.15 1.75573H170.915L172.356 4.58552H172.361ZM93.9662 14.4546V13.1652H89.4242V19.9035H90.9947V17.174H93.667V15.8796H90.9947V14.4546H93.9662ZM97.5209 13.1602C98.0195 13.1602 98.4533 13.2505 98.8172 13.4311C99.1812 13.6117 99.4654 13.8726 99.6598 14.2088C99.8542 14.5449 99.9539 14.9413 99.9539 15.3929C99.9539 15.8545 99.8592 16.2458 99.6598 16.577C99.4604 16.9081 99.1712 17.154 98.7973 17.3246L100.198 19.8985H98.4682L97.2367 17.5804H96.3593V19.8985H94.7888V13.1602H97.5209ZM98.3236 15.3929C98.3236 15.0768 98.2289 14.841 98.0345 14.6804C97.84 14.5199 97.5608 14.4446 97.1869 14.4446H96.3543V16.3161H97.1869C97.9447 16.3211 98.3236 16.015 98.3236 15.3929ZM105.473 13.1652V13.1602L105.478 13.1652H105.473ZM105.473 13.1652V14.4546H102.412V15.8796H105.234V17.174H102.412V18.609H105.483V19.9035H100.841V13.1652H105.473ZM109.05 14.3794C108.737 14.3798 108.499 14.44 108.33 14.5651C108.165 14.6905 108.081 14.8511 108.081 15.0518C108.081 15.2525 108.165 15.398 108.335 15.5134C108.504 15.6288 108.754 15.7191 109.078 15.7943L109.661 15.9348C110.319 16.0803 110.828 16.3212 111.177 16.6523C111.526 16.9834 111.705 17.4149 111.705 17.9418C111.705 18.3632 111.601 18.7295 111.386 19.0355C111.172 19.3416 110.873 19.5774 110.474 19.743C110.075 19.9086 109.601 19.9888 109.048 19.9888C108.484 19.9888 107.996 19.8985 107.582 19.7279C107.168 19.5574 106.849 19.3015 106.625 18.9553C106.4 18.6091 106.281 18.1876 106.271 17.6809H107.786C107.806 18.002 107.926 18.2428 108.145 18.4134C108.365 18.584 108.659 18.6693 109.028 18.6693C109.357 18.6693 109.616 18.6041 109.806 18.4736C109.995 18.3432 110.095 18.1675 110.1 17.9468C110.1 17.7561 110.01 17.6006 109.836 17.4852C109.661 17.3698 109.387 17.2694 109.008 17.1841L108.305 17.0186C107.064 16.7276 106.445 16.1054 106.445 15.1571C106.445 14.7457 106.555 14.3845 106.779 14.0684C107.004 13.7523 107.313 13.5064 107.707 13.3308C108.101 13.1552 108.554 13.0699 109.053 13.0699C109.551 13.0699 110.01 13.1552 110.394 13.3308C110.778 13.5064 111.077 13.7523 111.286 14.0684C111.496 14.3845 111.606 14.7507 111.606 15.1621H110.09C110.07 14.9113 109.97 14.7206 109.791 14.5852C109.612 14.45 109.363 14.3798 109.05 14.3794ZM114.098 15.8796V13.1602H112.528V19.8985H114.098V17.169H116.791V19.8985H118.361V13.1602H116.791V15.8796H114.098ZM125.251 17.4048H125.179L123.451 13.1652H121.497V19.9035H123.033V15.6939H123.088L124.718 19.8633H125.715L127.345 15.709H127.4V19.8985H128.936V13.1602H126.981L125.251 17.4048ZM134.001 13.1602H131.912H131.907L129.634 19.8985H131.334L131.788 18.4535H134.121L134.575 19.8985H136.27L134.001 13.1602ZM132.929 14.8259H132.984L133.742 17.2443H132.172L132.929 14.8259ZM139.72 13.1602C140.218 13.1602 140.652 13.2505 141.016 13.4311C141.38 13.6117 141.664 13.8726 141.859 14.2088C142.053 14.5449 142.153 14.9413 142.153 15.3929C142.153 15.8545 142.058 16.2458 141.859 16.577C141.659 16.9081 141.37 17.154 140.996 17.3246L142.397 19.8985H140.667L139.436 17.5804H138.558V19.8985H136.988V13.1602H139.72ZM140.523 15.3929C140.523 15.0768 140.428 14.841 140.233 14.6804C140.039 14.5199 139.76 14.4446 139.386 14.4446H138.553V16.3161H139.386C140.144 16.3211 140.523 16.015 140.523 15.3929ZM144.616 16.0351V13.1601L144.611 13.1551H143.04V19.8934H144.611V18.0521L145.279 17.2242L146.974 19.8984H148.864L146.431 16.1655L148.829 13.1601H146.959L144.711 16.0351H144.616ZM154.089 13.1602V13.1652H149.457V19.9035H154.099V18.609H151.027V17.174H153.849V15.8796H151.027V14.4546H154.089V13.1652H154.094L154.089 13.1602ZM160.5 14.4546V13.1602H154.866V14.4546H156.901V19.8985H158.466V14.4546H160.5Z" fill="black"/>
<path d="M66.4188 33.0146H80.284V119.499H53.2715V46.2454C53.2715 38.9452 59.1646 33.0146 66.4188 33.0146Z" fill="#77D326"/>
<path d="M80.284 57.5244H53.2715V105.405H80.284V57.5244Z" fill="url(#paint0_linear_136_9330)"/>
<path d="M98.0629 68.5771H19.957V95.1691H98.0629V68.5771Z" fill="#77D326"/>
<path opacity="0.5" d="M73.0901 68.6172H27.3613V95.169H73.0901V68.6172Z" fill="url(#paint1_linear_136_9330)"/>
<path d="M68.5343 0.0250929L47.8836 6.12936e-06C42.3345 -0.00501122 37.2491 3.07063 34.6416 7.98763L34.5718 8.1231C34.5668 8.13313 34.5618 8.14317 34.5568 8.1532L28.0954 20.7066L1.58645 74.4274C-1.99827 81.3915 0.703979 89.9661 7.62911 93.5736C9.60344 94.6022 11.7074 95.1139 13.7914 95.1641L20.3725 95.1691H35.4293C21.5492 91.7222 32.4379 72.4556 32.4379 72.4556L68.5343 0.0250929Z" fill="#77D326"/>
<path d="M132.495 29.9238C108.509 29.9238 88.9902 50.1287 88.9902 74.9596C88.9902 99.7904 108.504 120 132.495 120C156.487 120 176.001 99.7955 176.001 74.9596C176.001 50.1237 156.487 29.9238 132.495 29.9238ZM132.495 97.5979C120.42 97.5979 110.633 87.4628 110.633 74.9646C110.633 62.4664 120.42 52.3313 132.495 52.3313C144.571 52.3313 154.358 62.4664 154.358 74.9646C154.358 87.4628 144.571 97.5979 132.495 97.5979Z" fill="#77D326"/>
<path d="M148.862 67.2824C148.862 67.2824 141.015 66.9061 136.403 71.6826C133.995 74.1762 132.943 77.578 132.489 80.2623C132.035 77.578 130.983 74.1762 128.575 71.6826C123.964 66.9061 116.116 67.2824 116.116 67.2824C116.116 67.2824 115.752 75.4055 120.364 80.182C124.412 84.3715 130.949 84.5972 132.489 84.5872C134.03 84.5972 140.566 84.3715 144.614 80.182C149.226 75.4055 148.862 67.2824 148.862 67.2824Z" fill="#77D326"/>
<path d="M113.454 63.5401C117.218 56.8419 123.774 52.7628 130.704 52.0153C133.745 51.6841 136.592 50.1839 138.297 47.6301C139.768 45.4275 140.516 42.7131 140.222 39.8933C139.574 33.6267 134.059 29.2064 127.907 30.0192C116.325 31.5495 105.88 37.6255 98.4916 47.1284C91.1028 56.6312 88.2011 68.3568 89.4226 80.1476" fill="url(#paint2_linear_136_9330)"/>
<path d="M167.553 48.3623C163.924 43.2295 156.959 42.1107 152.003 45.8687C149.74 47.5846 148.284 50.023 147.72 52.6521C147.087 55.6174 147.905 58.688 149.72 61.1064C152.586 64.9346 154.297 69.7362 154.297 74.9593C154.297 87.4575 144.51 97.5926 132.434 97.5926C120.359 97.5926 110.572 87.4575 110.572 74.9593C110.572 67.2627 114.281 60.4692 119.95 56.38C122.438 54.5838 124.178 51.8694 124.412 48.7988C124.612 46.1496 123.939 43.4202 122.303 41.1072C118.674 35.9745 111.714 34.8556 106.753 38.6136C97.4247 45.683 91.3023 56.1492 89.5174 68.0805C87.7325 80.0118 90.5145 91.9029 97.3399 101.561C104.17 111.22 114.276 117.557 125.803 119.403C137.325 121.249 148.812 118.374 158.14 111.305C167.469 104.236 173.591 93.7693 175.376 81.8381C177.161 69.9068 174.379 58.0157 167.553 48.3573V48.3623Z" fill="#77D326"/>
</g>
<defs>
<linearGradient id="paint0_linear_136_9330" x1="66.7777" y1="62.9983" x2="66.7777" y2="101.07" gradientUnits="userSpaceOnUse">
<stop stop-color="#56A100" stop-opacity="0"/>
<stop offset="0.49" stop-color="#568F11" stop-opacity="0.5"/>
<stop offset="0.76" stop-color="#568619" stop-opacity="0.21"/>
<stop offset="0.97" stop-color="#568020" stop-opacity="0"/>
</linearGradient>
<linearGradient id="paint1_linear_136_9330" x1="27.3613" y1="81.8931" x2="99.0855" y2="81.8931" gradientUnits="userSpaceOnUse">
<stop stop-color="#56A100"/>
<stop offset="0.11" stop-color="#56920E" stop-opacity="0.56"/>
<stop offset="0.23" stop-color="#56851A" stop-opacity="0.16"/>
<stop offset="0.28" stop-color="#568020" stop-opacity="0"/>
</linearGradient>
<linearGradient id="paint2_linear_136_9330" x1="131.542" y1="38.8297" x2="103.151" y2="56.025" gradientUnits="userSpaceOnUse">
<stop offset="0.07" stop-color="#568020" stop-opacity="0"/>
<stop offset="0.24" stop-color="#56851A" stop-opacity="0.16"/>
<stop offset="0.62" stop-color="#56920E" stop-opacity="0.56"/>
<stop offset="1" stop-color="#56A100"/>
</linearGradient>
<clipPath id="clip0_136_9330">
<rect width="176" height="120" fill="white"/>
</clipPath>
</defs>
</svg>
