<svg width="150" height="150" viewBox="0 0 150 150" fill="none" xmlns="http://www.w3.org/2000/svg">
<path d="M140.16 110.753C146.424 99.9369 150 87.4124 150 74.0563C150 33.1563 116.421 0 75 0C33.5788 0 0 33.1563 0 74.0563C0 91.3316 5.99153 107.223 16.0278 119.817C17.6215 127.655 22.554 134.089 30.4821 138.571C31.9548 139.403 37.2756 142.032 45.7182 142.251C50.5548 144.278 55.6536 145.812 60.9441 146.803C61.7511 147.54 62.4016 148.038 62.8102 148.277C64.767 149.417 66.7238 149.995 68.6201 149.995C70.6879 149.995 72.5792 149.323 74.072 148.098C74.3797 148.098 74.6873 148.108 75 148.108C94.4018 148.108 112.079 140.832 125.393 128.9C125.519 128.905 125.646 128.92 125.777 128.92C126.553 128.92 128.076 128.83 129.504 128.253C129.7 128.327 129.887 128.377 130.053 128.412C130.331 128.542 130.709 128.676 131.173 128.741C131.35 128.766 131.541 128.776 131.753 128.776C132.454 128.776 133.316 128.636 134.023 128.293C134.527 128.049 135.117 127.645 135.626 126.978C135.652 127.008 135.677 127.038 135.702 127.067C136.554 128.068 137.83 128.621 139.283 128.621C140.145 128.621 140.932 128.507 141.678 128.278C142.727 127.954 143.534 127.127 143.827 126.081C144.014 125.409 143.968 124.712 143.716 124.085C143.726 123.975 143.741 123.821 143.766 123.621C143.852 122.904 144.044 122.008 144.19 121.336C144.472 120.106 144.775 118.318 144.775 116.983C144.775 113.652 143 111.331 140.155 110.753H140.16Z" fill="#80C342"/>
<path d="M127.179 116.34L129.514 116.36C129.746 116.36 130.295 116.171 130.497 115.564L130.775 114.428C130.825 114.04 130.775 113.771 130.603 113.577C130.371 113.308 129.968 113.248 129.433 113.238L127.804 113.198C127.915 112.521 128.026 111.839 128.147 111.161L128.157 111.107C128.263 110.499 128.409 109.662 127.501 109.408C127.3 109.354 127.093 109.379 126.911 109.408L126.785 109.423C126.13 109.493 125.635 110.021 125.358 110.942C125.136 111.674 125 112.177 124.738 113.153L122.867 113.193C122.7 113.193 122.559 113.248 122.453 113.357C122.211 113.606 122.236 114.065 122.256 114.393C122.256 114.478 122.266 114.548 122.261 114.607C122.246 115.081 122.387 115.484 122.675 115.773C122.983 116.086 123.426 116.246 123.996 116.251L124.057 116.271C123.986 116.54 123.89 116.873 123.795 117.202C123.679 117.59 123.573 117.959 123.517 118.203C123.436 118.561 123.341 118.925 123.245 119.284C122.756 121.141 122.246 123.058 123.689 124.891C124.289 125.653 125.358 125.977 126.417 125.977C126.876 125.977 127.335 125.917 127.749 125.802C128.439 125.613 129.529 124.881 129.685 124.054C129.741 123.76 129.695 123.332 129.181 122.954C128.909 122.755 128.651 122.794 128.399 122.834C128.172 122.869 127.94 122.904 127.628 122.784C126.987 122.54 126.765 121.808 126.644 121.201C126.468 120.304 126.77 118.626 127.042 117.142C127.093 116.868 127.138 116.604 127.184 116.35L127.179 116.34Z" fill="#231F20"/>
<path d="M140.685 115.095C140.191 114.438 139.444 114.055 138.456 113.955C136.842 113.791 135.657 114.05 134.92 114.732C135.052 114.089 135.268 113.083 135.561 111.883C135.682 111.39 135.793 110.957 135.894 110.579C136.247 109.219 136.423 108.542 136.206 108.069C135.985 107.586 135.758 107.526 135.405 107.461L135.364 107.645L135.4 107.461C135.062 107.401 134.456 107.586 134.386 107.606C133.816 107.785 133.402 108.248 133.039 109.119C132.787 109.722 132.55 110.29 131.617 115.1C130.704 119.801 130.407 124.507 130.402 124.552C130.361 125.21 130.628 125.563 130.866 125.747C131.289 126.081 131.96 126.146 132.711 125.927C133.589 125.673 133.73 124.677 133.871 123.716L133.902 123.496C134.013 122.749 134.356 120.469 134.809 119.438C135.142 118.392 135.838 117.56 136.675 117.222C137.2 117.008 137.609 117.018 137.891 117.247C138.426 117.685 138.466 118.845 138.325 119.532C138.083 120.713 137.936 121.604 137.75 122.829C137.609 123.691 137.689 125.219 138.481 125.887C138.738 126.101 139.036 126.21 139.384 126.21C139.58 126.21 139.792 126.176 140.019 126.101C141.119 125.752 140.942 125.04 140.786 124.413C140.751 124.278 140.72 124.144 140.695 123.999C140.534 123.088 140.735 122.137 140.932 121.216C140.972 121.036 141.008 120.857 141.043 120.683C141.441 118.686 141.709 116.465 140.685 115.095Z" fill="#231F20"/>
<path d="M86.6398 39.4062C86.0346 39.4062 85.5706 39.4909 85.1369 39.6552C83.4726 40.3126 82.6455 42.3245 82.7161 43.8932C82.7816 45.4867 83.8155 46.4528 85.4799 46.4777C86.5087 46.4927 87.4417 46.1092 88.1175 45.422C88.9497 44.5704 89.4339 43.2607 89.3784 42.0008C89.3078 40.3773 88.2789 39.4062 86.6449 39.4062H86.6398ZM84.335 44.0226C84.2341 42.8225 84.8595 40.6014 86.4684 40.462C86.4986 40.462 86.5339 40.462 86.5642 40.462C87.5073 40.4919 87.7191 41.3434 87.7645 41.8514C87.8654 43.0266 87.2249 45.2925 85.6412 45.4319C85.611 45.4319 85.5807 45.4319 85.5555 45.4369C84.562 45.4021 84.3703 44.4459 84.335 44.0276V44.0226Z" fill="white"/>
<path d="M103.515 39.7348C103.213 39.5505 102.809 39.436 102.381 39.4061C102.29 39.4011 102.204 39.4011 102.113 39.4061C101.629 39.3961 101.115 39.4907 100.605 39.6949C99.1074 40.2875 98.0836 41.7765 97.9928 43.4896C97.9474 44.3511 98.1844 45.1031 98.6837 45.6609C99.1376 46.1638 99.7933 46.4029 100.479 46.4576C100.479 46.4576 100.61 46.4726 100.817 46.4676C101.261 46.4676 102.275 46.4178 102.991 45.8551C103.364 45.5662 103.475 44.9089 103.177 44.5354C103.177 44.5354 102.239 45.2874 101.18 45.3322C101.054 45.3322 100.923 45.3222 100.792 45.2973C99.6621 45.0981 99.5714 44.0324 99.5714 43.7386C99.642 43.7386 99.7126 43.7386 99.7882 43.7386C101.306 43.7386 102.663 43.3402 103.425 42.6679C103.909 42.2397 104.201 41.8413 104.252 41.0993C104.312 40.163 103.53 39.7348 103.525 39.7348H103.515ZM99.6722 42.7874C99.9093 41.7666 100.57 41.1142 100.822 40.9399C101.21 40.671 102.088 40.2626 102.623 40.666C102.754 40.7656 102.834 40.9797 102.819 41.1789C102.789 41.5723 102.451 41.9707 101.901 42.2795C101.13 42.7078 100.333 42.7874 99.8639 42.7924C99.7832 42.7924 99.7176 42.7924 99.6672 42.7874H99.6722Z" fill="white"/>
<path d="M48.6177 35.4375C48.5168 35.4375 48.421 35.4375 48.3302 35.4375C46.9181 35.4375 46.0506 35.6218 46.0506 35.6218L44.1543 46.2489H45.0974C45.5513 46.2489 45.864 46.0397 45.9548 45.5069C46.0304 45.0985 46.5751 42.016 46.6104 41.8168C46.9937 41.8417 47.3468 41.8516 47.7553 41.8516C50.3123 41.8466 51.8454 40.268 52.143 38.6993C52.5666 36.4733 50.7258 35.4574 48.6177 35.4375ZM46.8273 40.6066L47.5334 36.6377C47.5334 36.6377 47.8158 36.563 48.3352 36.558C48.4159 36.558 48.5067 36.558 48.5975 36.5679C49.6264 36.6227 50.7359 37.0859 50.403 38.6545C50.2618 39.3119 49.7777 39.9543 49.2128 40.278C48.3857 40.7511 47.1349 40.6515 46.8273 40.6116V40.6066Z" fill="white"/>
<path d="M72.4077 39.4858C71.1015 39.3862 70.3551 40.2079 69.8709 40.9698C69.8205 40.4917 69.6642 40.1182 69.4019 39.8643C69.1447 39.6103 68.7866 39.4908 68.3731 39.4808C67.2383 39.4559 66.512 40.178 65.9522 41.159C65.9573 41.1192 65.9623 41.0793 65.9674 41.0445C66.0632 40.3473 66.0279 40.0883 65.8161 39.8144C65.8161 39.8144 65.6244 39.5406 65.0747 39.5605C64.878 39.5555 64.6258 39.5854 64.3081 39.6949C64.4897 39.8991 64.4896 40.2776 64.3182 41.4479C64.3081 41.5226 63.5264 45.9298 63.5264 45.9298C63.5264 45.9298 63.4759 46.2286 63.7937 46.2286H65.0142C65.0142 46.2286 65.1755 45.3023 65.2058 45.1479C65.342 44.5304 65.4479 43.893 65.8362 42.9966C66.6331 41.154 67.8738 40.3971 68.252 40.8204C68.3831 40.9648 68.3932 41.3184 68.3226 41.8164L67.5913 45.9298C67.5913 45.9298 67.5409 46.2286 67.8586 46.2286H69.0791L69.2355 45.3322C69.4927 43.7934 69.8659 42.9219 69.8659 42.9219C70.5669 41.2586 71.5151 40.5614 71.9185 40.6959C72.0144 40.7308 72.1909 40.8204 72.2615 41.1341C72.3018 41.3283 72.3069 41.6421 72.2464 41.9957C72.1808 42.4787 71.8681 43.8283 71.7269 44.8342C71.6311 45.5264 71.6664 45.7903 71.8782 46.0642C71.8782 46.0642 72.0698 46.3381 72.6196 46.3132C72.8163 46.3182 73.0684 46.2883 73.3862 46.1788C73.2046 45.9796 73.1844 45.5513 73.371 44.4159C73.487 43.7287 73.6434 42.9867 73.6434 42.9867C73.8703 41.8961 73.951 40.9598 73.7089 40.3871C73.4164 39.685 72.7255 39.5057 72.4128 39.4808L72.4077 39.4858Z" fill="white"/>
<path d="M95.3848 39.4859C94.0937 39.3863 93.2716 40.1881 92.7017 41.1741C92.7068 41.1293 92.7169 41.0845 92.7219 41.0446C92.8177 40.3474 92.7673 40.0337 92.5706 39.8146C92.1924 39.3963 91.3804 39.5855 91.0626 39.6951C91.2442 39.8993 91.2442 40.2777 91.0778 41.448C91.0526 41.6074 91.0273 41.7767 90.9971 41.9311L90.291 45.9299C90.291 45.9299 90.2406 46.2287 90.5583 46.2287H91.7738C91.7738 46.2287 91.9352 45.3025 91.9654 45.1481C92.1016 44.5306 92.2579 43.8782 92.6362 42.9768C93.4229 41.1094 94.5829 40.5417 94.936 40.701C95.0822 40.7658 95.1881 40.9102 95.2335 41.1293C95.2739 41.3235 95.2789 41.6372 95.2184 41.9908C95.1528 42.4739 94.8401 43.8234 94.6989 44.8294C94.5981 45.5216 94.6384 45.7855 94.8502 46.0594C94.8502 46.0594 95.0419 46.3333 95.5916 46.3084C95.7883 46.3134 96.0405 46.2835 96.3582 46.1739C96.1766 45.9747 96.1565 45.5465 96.3431 44.4111C96.454 43.7238 96.6154 42.9818 96.6154 42.9818C96.8424 41.8912 96.923 40.955 96.681 40.3823C96.3834 39.6801 95.6673 39.5009 95.3848 39.4809V39.4859Z" fill="white"/>
<path d="M58.0591 39.745C57.6052 39.7748 57.0403 39.8197 57.0403 39.8197L56.9041 40.6115C56.8588 40.8555 56.8083 41.1194 56.7528 41.3834C56.6419 41.8216 56.4906 42.3046 56.2384 42.8923C55.4416 44.7348 54.3774 45.2727 53.979 45.183C53.8479 45.1531 53.7066 45.0436 53.636 44.7398C53.5957 44.5456 53.5906 44.2319 53.6512 43.8783C53.7167 43.3952 54.0294 42.0507 54.1706 41.0397C54.2665 40.3426 54.2312 40.0836 54.0193 39.8097C54.0193 39.8097 53.8277 39.5358 53.278 39.5557C53.0813 39.5507 52.8291 39.5806 52.5114 39.6902C52.6929 39.8944 52.7131 40.3176 52.5265 41.4531C52.4155 42.1403 52.3601 42.2897 52.2491 42.8823C52.1281 43.5496 52.002 44.2717 52.0524 44.9291C52.1129 45.7458 52.6879 46.3035 53.4847 46.3882C54.7355 46.5127 55.5979 45.681 56.1678 44.7299C56.1678 44.7647 56.1577 44.7996 56.1527 44.8344C56.0569 45.5316 56.0922 45.7906 56.309 46.0645C56.309 46.0645 56.5007 46.3384 57.0504 46.3135C57.2471 46.3234 57.4993 46.2886 57.817 46.179C57.6354 45.9798 57.6354 45.5964 57.8069 44.4261C57.8321 44.2667 57.8573 44.0974 57.8876 43.943L58.3314 41.3933L58.5332 40.2679C58.5886 39.989 58.4878 39.725 58.0742 39.7499L58.0591 39.745Z" fill="white"/>
<path d="M81.3546 39.745C80.9007 39.7748 80.3358 39.8197 80.3358 39.8197L80.1996 40.6115C80.1542 40.8555 80.0988 41.1194 80.0483 41.3834C79.9374 41.8216 79.7861 42.3046 79.5339 42.8923C78.7371 44.7348 77.6729 45.2727 77.2745 45.183C77.1433 45.1531 77.0021 45.0436 76.9315 44.7398C76.8912 44.5456 76.8861 44.2319 76.9467 43.8783C77.0122 43.3952 77.3249 42.0507 77.4661 41.0397C77.5619 40.3426 77.5266 40.0836 77.3148 39.8097C77.3148 39.8097 77.1232 39.5358 76.5734 39.5557C76.3768 39.5507 76.1246 39.5806 75.8069 39.6902C75.9884 39.8944 76.0086 40.3176 75.822 41.4531C75.711 42.1403 75.6556 42.2897 75.5496 42.8823C75.4286 43.5496 75.2975 44.2717 75.353 44.9291C75.4135 45.7458 75.9884 46.3035 76.7802 46.3882C78.031 46.5127 78.8934 45.681 79.4633 44.7299C79.4583 44.7647 79.4532 44.7996 79.4482 44.8344C79.3523 45.5316 79.3876 45.7906 79.6045 46.0645C79.6045 46.0645 79.7962 46.3384 80.3459 46.3135C80.5426 46.3234 80.7947 46.2886 81.1125 46.179C80.9309 45.9798 80.9309 45.5964 81.1024 44.4261C81.1226 44.2667 81.1528 44.0974 81.1831 43.943L81.6269 41.3933L81.8286 40.2679C81.8791 39.989 81.7832 39.725 81.3697 39.7499L81.3546 39.745Z" fill="white"/>
<path d="M62.8497 35.3428C62.8144 35.3428 62.769 35.3428 62.7185 35.3527L61.4879 35.6017L59.8186 44.949C59.7329 45.4819 59.7682 45.696 59.8741 45.9052C59.9749 46.0844 60.1363 46.189 60.3128 46.2488C60.4994 46.3085 60.6961 46.3235 60.8676 46.3185C61.1904 46.3285 61.4526 46.2587 61.4526 46.2587C61.4526 46.2587 61.2862 45.7458 61.4224 44.9391L63.0463 35.8507C63.0917 35.5918 63.122 35.3428 62.8547 35.3428H62.8497Z" fill="white"/>
<path d="M75 32.3298C61.287 32.3298 49.0367 29.0231 40.7504 23.9436C40.6899 23.9087 40.6294 23.8689 40.5739 23.8191C40.4982 23.7593 40.4781 23.6498 40.5184 23.5601C40.5537 23.4655 40.6546 23.3958 40.7605 23.4157C40.8311 23.4306 40.9168 23.4556 40.9774 23.4804C50.1563 26.5531 62.0536 28.291 75 28.291C87.9463 28.291 99.8386 26.5531 109.023 23.4804C109.083 23.4605 109.164 23.4306 109.244 23.4157C109.345 23.3958 109.441 23.4605 109.487 23.5601C109.517 23.6498 109.507 23.7593 109.421 23.8191C109.371 23.8639 109.31 23.9037 109.249 23.9436C100.968 29.0281 88.7129 32.3298 75.005 32.3298H75Z" fill="white"/>
<path d="M121.227 104.245C120.491 91.3421 113.319 83.3643 105.583 81.6512C103.056 79.9729 99.5409 79.1961 95.9601 79.3604C81.879 80.0178 71.5098 94.9475 72.4176 110.863C72.5387 112.98 72.8614 114.957 73.3557 116.794C78.742 115.101 84.4915 110.674 86.2465 114.429C87.9764 118.129 82.6153 123.607 78.6361 126.475C83.155 131.256 89.7668 133.656 97.3067 133.308C112.891 132.581 122.155 120.629 121.217 104.245H121.227ZM98.4767 123.761C92.1271 124.07 86.5492 117.322 86.07 108.737C85.5001 98.4833 90.6948 89.9527 96.2173 87.3432C100.585 88.887 107.757 92.9655 108.468 105.719C109.007 115.39 105.29 123.428 98.4818 123.761H98.4767Z" fill="#231F20"/>
<path d="M84.315 114.663C83.7603 114.329 83.0643 114.324 82.4591 114.563C78.4798 116.152 72.7657 118.861 66.7137 120.624C66.5977 115.435 67.0566 109.693 68.2418 103.762C68.9479 100.251 70.1986 96.6305 70.4004 94.4841C70.945 88.6825 60.9894 82.3033 57.7062 88.807C51.0742 101.949 51.1145 113.293 53.5404 122.143C51.5785 121.894 49.6923 121.366 47.9422 120.464C40.1048 116.426 41.6582 104.693 41.6733 104.504C42.8333 90.4952 56.9144 71.8803 57.3683 71.1184C60.3187 66.1783 60.3388 60.6406 47.1151 70.5108C37.7496 77.4977 4.45322 116.505 33.6947 133.039C36.9275 134.866 45.7837 137.655 57.5952 134.398C57.9987 134.289 58.3971 134.169 58.7956 134.045C62.1797 139.448 65.6545 142.535 66.0984 142.794C70.2894 145.234 71.9235 141.928 69.9868 137.745C69.0639 135.743 68.3023 133.303 67.7425 130.519C68.2973 130.26 68.847 129.996 69.3967 129.727C71.6612 128.611 73.8803 127.391 76.0035 126.027C77.9654 124.767 79.8617 123.378 81.526 121.759C82.8726 120.449 84.1335 118.94 84.8042 117.178C84.8748 116.988 84.9505 116.794 84.9959 116.595C85.1976 115.803 85.0463 115.116 84.3049 114.673L84.315 114.663Z" fill="#231F20"/>
<path d="M6.01714 73.518C7.46459 71.9543 9.97619 71.3567 12.1146 72.293C16.346 74.1455 15.2213 77.8406 15.6096 77.741C15.9122 77.6613 18.0254 73.7073 22.8923 74.5688C27.3809 75.3656 31.3651 82.7607 25.1769 88.1839C16.9512 95.3898 17.3546 99.1247 17.7077 102.357C17.7682 102.909 17.1176 103.114 16.7141 102.73C13.8092 99.9863 9.69376 97.0581 6.32983 89.7376C4.47891 85.7039 2.95077 79.3893 4.96308 75.0718C5.22029 74.519 5.58341 73.9861 6.01714 73.518Z" fill="#F9ED32"/>
<path d="M126.271 102.258C126.271 102.597 126.291 102.935 126.321 103.264C126.659 103.294 126.997 103.314 127.34 103.314C133.593 103.314 138.662 98.309 138.662 92.1339C138.662 91.7952 138.642 91.4566 138.612 91.1279C138.274 91.098 137.936 91.0781 137.593 91.0781C131.339 91.0781 126.271 96.0829 126.271 102.258Z" fill="white"/>
<path d="M68.0553 59.0921C70.2996 58.7585 72.2111 58.3252 74.4301 57.7426C74.9748 57.5633 75.4388 57.1051 75.3833 56.647C75.2825 55.9349 74.7882 55.8303 74.0922 55.9847C72.4128 56.4179 69.7045 57.0304 67.6367 57.389C66.5524 57.5932 66.2447 57.872 66.27 58.4597V58.4846C66.3708 59.1469 67.0719 59.1967 68.0503 59.0971L68.0553 59.0921Z" fill="#231F20"/>
<path d="M78.6207 66.7315C78.9839 66.6817 79.3672 66.2236 79.3672 65.7654C79.2915 65.1778 78.8527 64.9736 78.4644 64.9736C75.8318 65.1778 69.4519 66.4776 66.5116 67.1648C65.9417 67.2943 65.5029 67.5731 65.5029 68.1857C65.5029 68.5691 65.8408 69.1568 66.6377 69.0273C68.4987 68.594 69.9159 68.2604 71.9282 67.857C71.8525 68.5691 71.7718 69.107 71.671 69.7693C70.7682 69.9486 70.0167 70.1029 69.1947 70.3071C68.6803 70.4864 68.5743 71.1736 68.7811 71.5571C68.9627 71.9405 69.4519 72.065 69.7898 72.0152C70.7985 71.7613 72.9671 71.3031 73.9707 71.1487C72.8864 72.5481 71.9837 73.8528 71.6205 74.6944C71.1565 75.9693 72.367 76.1984 73.2748 75.9942C73.8951 75.8398 74.5659 75.6904 74.8735 75.6904L72.4476 78.7232C72.2409 78.9772 72.1652 79.256 72.1652 79.515C72.1652 80.1026 72.5788 80.5608 73.4815 80.5608C74.7222 80.5359 76.8909 80.0528 78.6207 79.4901C79.1352 79.261 79.4731 78.8029 79.3672 78.2152C79.236 77.7322 78.7973 77.6027 78.3081 77.7571C76.9917 78.1654 75.7258 78.4941 74.6163 78.6983C76.2453 77.0151 76.8354 76.1486 76.9665 75.307C77.0674 74.3359 76.321 74.0819 75.2871 74.0819C74.8735 74.0819 74.4852 74.1317 74.0464 74.1815C74.6415 73.2652 74.9744 72.8319 75.9326 71.582C76.215 71.1736 76.3714 70.8151 76.3714 70.4366C76.3462 69.2115 75.0046 69.1617 73.6883 69.4157L74.0262 67.4536C75.3678 67.1997 76.7648 67.0204 78.6207 66.7415V66.7315Z" fill="#231F20"/>
<path d="M74.1525 59.5952C74.3794 59.1869 74.334 58.654 73.9205 58.3702C73.5321 58.1162 73.0177 58.3702 72.8109 58.5743C72.3167 59.7147 71.3484 61.876 71.1012 63.1061C71.0458 63.116 70.0926 63.2754 70.032 63.2853C69.7647 62.0155 70.032 60.6559 70.3952 59.6102C70.3952 59.2217 70.0371 59.0474 69.6538 58.9877C69.2705 58.9279 68.8922 59.0076 68.8166 59.162C68.4333 59.9637 67.939 61.5025 68.2971 63.2007C68.3324 63.36 68.3677 63.4995 68.4081 63.6389C67.9088 63.7634 67.6011 64.0024 67.5406 64.4307C67.5154 65.098 67.7978 65.4616 68.3173 65.4416C68.9729 65.4167 73.6885 64.4905 76.0337 63.9029C76.2909 63.8033 76.7296 63.2654 76.422 62.6778C76.1648 62.2445 75.61 62.2694 75.2065 62.3441C74.5005 62.4786 74.3542 62.5085 72.9118 62.7873C73.3506 61.3382 73.5372 60.6908 74.1525 59.5853V59.5952Z" fill="#231F20"/>
<path d="M91.1331 66.4426C87.9306 67.4386 84.1884 68.1258 80.885 68.4047C80.189 68.5043 79.7754 68.7632 79.6998 69.2961C79.6746 69.9833 79.957 70.3419 80.4765 70.3419C82.1811 70.1626 83.8051 69.9584 85.4845 69.6795C85.5098 70.4962 85.5098 71.0291 85.5098 71.8707C85.5098 73.5041 85.4341 75.1325 85.2525 76.7659C85.2273 77.3785 85.7165 77.6324 86.236 77.6324C86.6496 77.6324 87.0631 77.3785 87.1136 77.0946C87.3203 75.0578 87.396 73.0908 87.396 71.0789C87.396 70.4912 87.396 69.9086 87.3708 69.2961C88.793 68.9923 90.2102 68.6835 91.5013 68.2503C91.9148 68.0959 92.3032 67.6129 92.3032 67.1796C92.3032 66.5173 91.6829 66.2633 91.1432 66.4426H91.1331Z" fill="#231F20"/>
<path d="M83.2354 65.9393C83.2354 65.9393 83.2758 65.9045 83.2959 65.8895C83.4372 66.1037 83.6742 66.2531 83.997 66.2033C84.4105 66.1385 86.0093 65.8198 86.7254 65.6654C87.5929 65.4812 88.5764 65.2571 88.5764 65.2571C89.0404 65.1575 89.4337 64.9483 89.2572 64.1515C89.1563 63.6934 88.8285 63.5141 88.1124 63.6735L88.1325 63.5938L88.8487 58.8878C89.1311 58.0711 88.6419 57.1049 87.6332 57.334L83.2203 58.5043C82.9631 58.579 82.832 58.7583 82.7311 58.9376V58.6288C82.6302 58.0013 82.2923 57.7125 81.8031 57.7125C81.2887 57.7125 80.9054 58.2503 80.9256 58.6288C81.0214 60.2921 81.8283 63.7382 82.0704 65.0529C82.1461 65.4114 82.4134 66.2182 83.2405 65.9393H83.2354ZM83.6036 60.1875L86.8969 59.2812L86.554 63.9822C86.5439 64.0121 84.577 64.4453 84.3601 64.4802C84.0676 64.53 83.8356 64.5997 83.6439 64.6943C83.2909 63.0062 83.064 61.4524 82.7462 59.8539C82.9026 60.2124 83.185 60.2871 83.5985 60.1875H83.6036Z" fill="#231F20"/>
<path d="M96.9434 65.7798C98.2093 65.1672 100.121 63.3346 99.8887 61.1933C99.6819 60.1475 98.8044 59.3557 97.9268 59.4354C97.9016 58.9523 97.6948 58.6685 97.3821 58.6436C96.9686 58.6436 96.3735 59.3806 96.1415 59.764C95.5968 60.5558 94.8252 62.2092 94.7747 63.8426C94.7243 65.2718 95.5211 66.5467 96.9434 65.7798ZM97.4578 61.0389C97.5587 60.9094 98.0529 61.1684 98.0529 61.5717C98.2093 62.4631 97.1754 63.7878 96.4794 64.0717C96.6105 63.0508 96.8425 61.9552 97.4628 61.0389H97.4578Z" fill="#231F20"/>
<path d="M107.357 74.2411C105.32 74.9283 103.59 75.3118 102.713 75.3118H102.223C102.249 74.6992 102.713 73.2451 103 72.6625C103.464 71.771 102.486 70.7253 101.759 71.542C101.502 71.9254 100.443 74.1166 100.468 75.5707C100.468 76.7709 101.502 77.0498 102.43 77.0498C103.953 77.0498 106.046 76.5418 107.463 75.9791C107.826 75.7998 108.623 75.242 108.548 74.7042C108.472 74.1714 107.877 74.0668 107.363 74.2461L107.357 74.2411Z" fill="#231F20"/>
<path d="M117.717 70.3015C117.647 69.4997 117.047 69.3354 116.547 69.4499L112.326 70.67V68.3792C112.402 67.9709 112.2 67.3185 111.675 67.2986C111.222 67.2488 110.793 67.5327 110.742 68.0058L110.632 71.427C110.561 72.3233 111.075 72.5873 111.65 72.4678L116.477 71.1929C117.243 70.9588 117.672 70.7696 117.717 70.2965V70.3015Z" fill="#231F20"/>
<path d="M112.073 70.6357L110.283 71.1437C109.516 71.3778 109.087 71.567 109.042 72.0401C109.113 72.8418 109.713 73.0062 110.212 72.8916L112.335 72.299" fill="#231F20"/>
<path d="M118.822 73.1202C119.084 73.1202 119.563 72.906 119.608 72.3632C119.75 71.0883 119.871 69.7438 119.921 68.4689C121.02 68.1602 122.049 67.9012 123.245 67.6672C123.769 67.4779 123.961 67.0994 123.936 66.8156C123.91 66.5317 123.577 66.0586 123.073 66.0835C122.382 66.1333 121.116 66.4122 119.966 66.721C119.992 65.3266 119.966 64.0069 119.916 62.6872C119.891 62.2639 119.507 61.4373 118.791 61.5319C118.242 61.6265 118.196 62.0498 118.216 62.9711C118.262 64.221 118.312 65.5407 118.312 66.9102C118.312 68.5835 118.242 70.3065 118.075 71.7706C118.05 72.2437 118.075 73.0455 118.817 73.1152L118.822 73.1202Z" fill="#231F20"/>
<path d="M113.511 64.2909V64.8586C113.511 65.9442 113.415 67.1245 113.274 68.2101C113.228 68.7031 113.702 68.9173 113.964 68.9422C114.348 68.9671 114.731 68.8724 114.872 68.3545C115.16 66.8207 115.23 65.1226 115.205 63.4443C115.205 62.5728 114.655 62.0998 113.964 62.3139L109.713 64.1565C109.33 64.3208 108.901 64.8387 108.972 65.267C109.188 65.8546 109.738 65.9492 110.071 65.8546C110.883 65.5259 111.841 65.0279 113.511 64.2959V64.2909Z" fill="#231F20"/>
<path d="M120.113 77.309C120.113 76.9405 119.684 76.9156 119.472 76.9803C118.872 77.1795 118.458 77.309 118.015 77.4285C118.055 76.8857 118.07 76.2931 118.03 75.7154C118.015 75.3618 117.843 75.0979 117.455 75.1875C117.147 75.2672 117.066 75.581 117.082 75.8847C117.107 76.572 117.107 76.9554 117.056 77.6526C116.764 77.7173 116.441 77.7721 115.977 77.8618C115.629 77.9265 115.468 78.2054 115.508 78.4295C115.523 78.6287 115.669 78.8627 116.002 78.8378C117.606 78.534 118.66 78.2552 119.755 77.9016C119.981 77.807 120.113 77.4933 120.113 77.309Z" fill="#231F20"/>
<path d="M124.571 79.6694C124.223 79.764 123.144 79.9732 122.806 79.9981C122.645 80.013 122.635 79.759 122.62 79.5499C122.564 78.7979 122.594 77.7023 122.604 77.0699C122.604 76.8458 122.362 76.7412 122.135 76.7412C121.908 76.7412 121.666 76.8607 121.641 77.03C121.626 77.3986 121.626 77.7671 121.626 78.1107C121.626 78.7033 121.651 79.3357 121.692 79.9582C121.747 80.4861 121.918 80.999 122.388 80.999C122.841 80.9841 124.188 80.75 124.98 80.4562C125.101 80.3915 125.166 80.1026 125.086 79.9035C125.005 79.7192 124.793 79.6146 124.566 79.6644L124.571 79.6694Z" fill="#231F20"/>
<path d="M118.267 79.1661C118.212 78.942 118.106 78.8125 117.985 78.8125C117.743 78.8125 117.49 79.196 117.41 79.3404C117.198 79.7487 116.9 80.5405 116.9 81.2278C116.9 81.8353 117.153 82.3881 117.677 82.3881C118.64 82.3333 119.518 80.9788 119.306 80.0127C119.17 79.4201 118.681 79.1412 118.262 79.1711L118.267 79.1661ZM117.758 81.4618C117.733 81.0535 117.838 80.431 118.05 80.0376C118.156 79.8384 118.449 79.9728 118.489 80.3015C118.545 80.6551 118.156 81.2128 117.753 81.4618H117.758Z" fill="#231F20"/>
<path d="M123.703 85.4959L122.059 85.9292L123.169 83.0558C123.33 82.5926 123.113 82.0548 122.594 82.1843L120.415 82.737C120.39 82.3287 120.173 82.1046 119.976 82.0897C119.724 82.0747 119.467 82.2739 119.467 82.6325C119.452 83.4641 119.492 84.7439 119.573 85.6154C119.613 85.9441 119.855 86.1433 120.092 86.1582H120.118C120.4 86.1184 120.476 85.9192 120.466 85.6154C120.425 85.0079 120.385 84.3107 120.385 83.6484L122.135 83.24L120.904 86.3525C120.743 86.7857 121.116 87.1194 121.454 87.0496C122.271 86.8256 123.179 86.5766 123.991 86.3624C124.243 86.2678 124.349 86.0088 124.258 85.7449C124.193 85.5606 124.072 85.4262 123.698 85.4959H123.703Z" fill="#231F20"/>
<path d="M131.612 77.0244C131.304 77.0244 131.198 77.2634 131.183 77.5274C131.208 77.9756 131.238 78.3989 131.238 78.8869C130.719 78.9516 130.356 79.0064 129.892 79.1259C129.907 78.6777 129.917 78.3092 129.917 78.0055C129.892 77.622 129.675 77.5174 129.408 77.5174C129.246 77.5174 129.115 77.5423 128.994 77.5822L127.819 77.9507C127.753 77.7116 127.552 77.6718 127.34 77.6718C127.178 77.6718 127.047 77.6967 126.926 77.7266L125.363 78.2395C125.096 78.3341 124.909 78.5283 124.99 78.8471C125.055 79.1259 125.323 79.1508 125.549 79.0861L126.926 78.6379C126.911 79.7335 126.831 80.59 126.604 81.7653C126.604 82.1189 127.31 82.1587 127.471 81.9097C127.698 80.9187 127.804 79.8132 127.829 78.862L128.989 78.5333C128.989 79.7584 128.893 81.0781 128.666 82.2782C128.666 82.6318 129.372 82.6716 129.534 82.4226C129.68 81.7753 129.786 80.8291 129.841 80.0373C130.391 79.9078 130.764 79.8381 131.228 79.7733C131.213 80.6149 131.203 81.3171 131.163 82.1488C131.163 82.4276 131.365 82.6218 131.591 82.6517C131.728 82.6667 131.99 82.5471 132.02 82.3479C132.101 81.2026 132.182 79.6986 132.182 77.7963C132.166 77.4029 132.086 77.0692 131.607 77.0294L131.612 77.0244Z" fill="#231F20"/>
<path d="M133.296 76.7462C132.964 76.8259 132.868 77.0102 132.868 77.3139C132.883 77.7074 132.893 78.1307 132.893 78.5539C132.893 79.8736 132.812 81.3626 132.691 82.7719C132.651 83.1255 132.878 83.3247 133.105 83.3546C133.236 83.3546 133.493 83.2749 133.533 83.0359C133.695 81.7411 133.866 79.7641 133.866 77.6675C133.851 77.1397 133.801 76.6765 133.291 76.7462H133.296Z" fill="#231F20"/>
<path d="M99.7118 67.722C101.134 67.4182 101.25 67.5527 102.541 67.1194C102.955 66.9651 103.343 66.482 103.343 66.0488C103.343 65.3864 102.723 65.1324 102.183 65.3117C99.1016 66.1384 98.1433 66.243 94.8752 66.7957C94.1792 66.8953 93.7657 67.1543 93.69 67.6871C93.6648 68.3744 93.9472 68.7329 94.4667 68.7329C96.1714 68.5536 96.1562 68.3893 97.8357 68.1055C97.8609 68.9222 97.8609 69.455 97.8609 70.2966C97.8609 71.93 97.9517 71.4619 97.7701 73.0903C97.7449 73.7029 98.2341 73.9569 98.7536 73.9569C99.1671 73.9569 99.5807 73.7029 99.6311 73.419C99.8379 71.3822 99.7471 71.5167 99.7471 69.4998C99.7471 68.9122 99.7471 68.3295 99.7219 67.717L99.7118 67.722Z" fill="#231F20"/>
<path d="M101.205 68.2056C100.741 68.3351 100.458 68.8929 100.509 69.2265C100.64 70.0183 101.285 70.093 101.775 69.9635C103.348 69.3759 103.716 69.4008 105.239 69.097C105.164 70.1179 105.154 70.5163 104.896 71.6368C104.74 72.2742 104.796 72.8071 105.386 72.9366C105.824 73.0112 106.238 72.8867 106.445 72.2991C106.984 70.7703 107.221 68.4745 107.221 66.4079C107.221 65.7954 107.121 63.4299 107.07 62.9219C107.045 62.414 106.788 61.4429 105.935 61.6969C105.653 61.8264 105.169 62.0007 105.219 62.7676C105.244 63.5843 105.295 66.7515 105.295 67.2843C103.515 67.5632 102.94 67.5881 101.21 68.2006L101.205 68.2056Z" fill="#231F20"/>
</svg>
