<svg width="350" height="235" viewBox="0 0 350 235" fill="none" xmlns="http://www.w3.org/2000/svg">
<g clip-path="url(#clip0_107_3451)">
<path fill-rule="evenodd" clip-rule="evenodd" d="M344.369 150.792C344.299 150.852 333.579 135.022 316.159 125.462C297.289 115.102 275.399 124.172 259.779 137.382C252.959 143.142 258.249 138.692 257.499 139.372L305.749 197.072C325.789 176.132 344.359 150.802 344.359 150.802L344.369 150.792Z" fill="#CE0001"/>
<path fill-rule="evenodd" clip-rule="evenodd" d="M333.969 203.942C333.969 203.942 363.129 169.982 341.979 147.672C320.839 125.352 296.099 123.602 276.519 133.262C271.459 135.752 266.209 139.442 261.349 143.952L322.159 216.672C326.009 213.112 329.949 208.902 333.979 203.942H333.969Z" fill="#EA0001"/>
<path fill-rule="evenodd" clip-rule="evenodd" d="M298.629 180.662C284.269 164.042 273.369 151.272 274.429 149.032C282.509 132.092 362.479 145.302 328.949 194.172C318.009 210.122 307.709 191.352 298.619 180.652L298.629 180.662Z" fill="#CE0001"/>
<path fill-rule="evenodd" clip-rule="evenodd" d="M287.199 156.174C286.049 141.894 276.329 147.494 282.229 152.694C283.359 153.684 284.969 154.844 287.199 156.174ZM293.459 155.714C291.699 153.814 290.479 152.244 289.669 150.974C285.469 144.334 296.369 141.684 293.459 155.714ZM300.969 156.254C307.509 143.504 296.289 143.154 298.579 150.684C299.019 152.124 299.779 153.954 300.969 156.254ZM308.489 158.254C307.819 155.744 307.469 153.794 307.349 152.294C306.729 144.454 317.609 147.204 308.489 158.254ZM315.219 161.334C326.889 153.024 317.089 147.554 315.659 155.284C315.389 156.764 315.219 158.744 315.219 161.334ZM320.069 165.214C320.869 162.744 321.629 160.914 322.349 159.594C326.079 152.674 333.729 160.884 320.069 165.214ZM322.419 169.484C324.269 167.674 325.799 166.404 327.049 165.564C333.579 161.184 336.519 172.004 322.419 169.484ZM322.909 175.114C334.109 184.044 336.669 173.114 328.849 173.874C327.349 174.014 325.409 174.404 322.909 175.114ZM320.399 182.004C322.989 181.924 324.969 182.024 326.459 182.254C334.229 183.444 329.069 193.404 320.399 182.004ZM315.919 188.354C321.439 201.574 328.949 193.234 321.719 190.124C320.339 189.534 318.449 188.934 315.919 188.354Z" fill="#DECB91"/>
</g>
<g clip-path="url(#clip1_107_3451)">
<path fill-rule="evenodd" clip-rule="evenodd" d="M131.674 182.061C147.194 168.441 153.104 137.051 138.664 126.001C118.074 110.051 87.4438 127.691 80.4738 148.251C71.0538 176.071 107.814 202.991 131.674 182.051V182.061Z" fill="#192B23"/>
<path fill-rule="evenodd" clip-rule="evenodd" d="M128.634 180.872C142.564 168.652 146.974 142.032 134.014 132.122C114.554 115.992 89.7939 130.632 82.9939 148.892C74.8339 170.792 107.224 199.662 128.634 180.872Z" fill="#BAE0D3"/>
<path fill-rule="evenodd" clip-rule="evenodd" d="M126.164 144.093C124.984 146.443 121.964 151.353 119.744 152.503C118.114 153.713 118.164 151.923 118.604 150.783C120.064 146.993 123.034 144.213 124.824 142.723C126.464 141.353 127.674 140.693 126.164 144.083V144.093ZM129.084 144.563C128.984 141.543 128.494 142.533 127.614 144.043C126.044 146.743 125.624 148.633 125.704 151.723C125.734 152.713 126.354 154.313 127.114 152.843C128.324 151.203 129.064 146.693 129.084 144.563ZM121.204 139.573C123.374 137.473 122.254 137.083 120.594 137.623C118.794 138.213 115.244 139.873 113.844 141.393C113.174 142.123 112.164 143.323 113.734 143.163C116.204 142.963 118.464 142.193 121.204 139.563V139.573ZM123.234 142.233C125.574 139.343 124.234 139.663 122.284 140.563C120.164 141.543 116.554 143.913 114.804 146.563C114.124 147.583 113.464 149.303 115.354 148.553C117.804 148.003 121.494 144.203 123.244 142.233H123.234Z" fill="#FFFBDB"/>
<path fill-rule="evenodd" clip-rule="evenodd" d="M96.2443 152.003C98.8543 151.703 104.624 151.553 106.804 152.773C108.704 153.473 107.184 154.413 105.994 154.663C102.024 155.513 98.0743 154.543 95.8443 153.873C93.7943 153.253 92.5843 152.593 96.2443 152.003ZM95.0443 149.313C96.8443 148.163 101.024 146.313 103.054 146.433C104.694 146.273 103.704 147.663 102.884 148.223C100.334 149.983 98.5243 150.653 95.4043 150.823C93.6643 150.913 92.5643 151.043 95.0343 149.313H95.0443ZM95.1843 158.633C98.8843 159.483 100.764 160.953 102.284 162.913C103.274 164.143 101.724 163.953 100.734 163.793C98.6943 163.463 95.3643 161.393 93.8843 160.213C92.5243 159.123 92.2343 157.973 95.1743 158.633H95.1843ZM96.2943 155.473C92.5943 155.103 93.5943 156.043 95.4143 157.183C97.3943 158.413 101.354 160.143 104.534 160.163C105.764 160.163 107.564 159.783 105.904 158.613C104.104 156.863 98.9043 155.863 96.2943 155.473Z" fill="#FFFBDB"/>
<path fill-rule="evenodd" clip-rule="evenodd" d="M122.364 168.883C121.774 166.323 119.984 160.843 118.104 159.193C116.804 157.633 116.434 159.383 116.594 160.593C117.124 164.623 119.354 168.023 120.734 169.893C122.004 171.613 123.024 172.533 122.364 168.893V168.883ZM125.304 169.113C124.494 172.023 124.254 170.943 123.754 169.273C122.864 166.283 122.894 164.343 123.704 161.363C123.964 160.403 124.944 159.003 125.334 160.603C126.124 162.483 125.784 167.033 125.304 169.123V169.113ZM116.474 172.093C118.084 174.643 116.904 174.753 115.424 173.843C113.814 172.853 110.754 170.403 109.754 168.593C109.274 167.723 108.574 166.313 110.064 166.843C112.424 167.623 114.434 168.893 116.474 172.103V172.093ZM119.084 169.993C120.674 173.353 119.454 172.733 117.764 171.393C115.944 169.943 112.984 166.793 111.904 163.803C111.484 162.653 111.244 160.823 112.904 161.993C115.154 163.103 117.844 167.673 119.074 169.993H119.084Z" fill="#FFFBDB"/>
</g>
<g clip-path="url(#clip2_107_3451)">
<path fill-rule="evenodd" clip-rule="evenodd" d="M222.344 122.563C222.494 122.653 222.624 122.763 222.744 122.863H222.764C222.954 123.043 223.044 123.133 223.134 123.233C223.264 123.373 223.394 123.543 223.484 123.653L223.544 123.743C223.764 124.033 223.904 124.363 224.024 124.663C224.114 124.903 224.184 125.173 224.244 125.483C224.354 126.143 224.424 126.823 224.454 127.543C224.464 127.743 224.464 127.953 224.454 128.133V128.193V128.253V128.283V128.403C224.454 128.523 224.444 128.653 224.424 128.773V128.823C224.394 129.033 224.374 129.243 224.344 129.443C224.314 129.713 224.264 130.023 224.204 130.353C224.144 130.673 224.064 130.983 223.974 131.283C223.804 131.833 223.594 132.433 223.314 133.113C223.084 133.653 222.824 134.223 222.524 134.843C222.414 135.063 222.284 135.273 222.164 135.483L222.064 135.663C221.924 135.903 221.784 136.153 221.634 136.393C221.014 137.443 220.344 138.533 219.644 139.623C219.444 139.933 219.244 140.243 219.034 140.553C218.674 141.093 218.144 141.913 217.674 142.703C217.254 143.413 216.834 144.133 216.414 144.853L216.104 145.393L215.794 145.933L215.464 146.503C215.024 147.243 214.464 148.203 213.924 149.163C213.544 149.833 213.254 150.373 213.024 150.823C212.724 151.393 212.494 151.903 212.224 152.483C211.784 153.443 211.404 154.313 211.064 155.143C210.844 155.713 210.624 156.273 210.404 156.843C210.334 157.023 210.264 157.193 210.204 157.373C210.094 157.663 209.924 158.093 209.774 158.513C209.634 158.883 209.514 159.243 209.394 159.603L209.284 160.123L209.254 160.283C209.184 160.653 209.104 161.013 209.044 161.373C208.934 161.983 208.784 162.593 208.664 163.103L208.644 163.193C208.514 163.753 208.354 164.403 208.204 165.073C208.014 165.923 207.834 166.803 207.664 167.633L207.634 167.763V167.803L207.604 167.883C207.454 168.593 207.314 169.293 207.164 170.003C207.164 170.043 207.144 170.083 207.134 170.113C207.054 170.763 206.954 171.373 206.864 171.943L206.844 172.053C206.774 172.593 206.684 173.253 206.564 174.013C206.364 175.333 206.134 176.653 205.874 177.943L205.914 177.803L205.974 177.643L206.064 177.393C206.404 176.453 206.764 175.443 207.114 174.443C207.354 173.743 207.574 173.053 207.814 172.273C207.934 171.883 208.054 171.513 208.174 171.133C208.254 170.883 208.334 170.643 208.404 170.393L208.444 170.273L208.474 170.183L208.504 170.073C208.564 169.873 208.624 169.673 208.684 169.483C208.774 169.183 208.874 168.893 208.974 168.593V168.543C209.074 168.283 209.164 168.013 209.244 167.753C209.444 167.123 209.624 166.603 209.814 166.073C210.054 165.443 210.294 164.823 210.554 164.193C211.104 162.893 211.584 161.833 212.044 160.853L212.314 160.293C212.824 159.243 213.244 158.373 213.674 157.443C213.854 157.073 214.034 156.653 214.194 156.263L214.244 156.153V156.123L214.284 156.063L214.314 156.003L214.344 155.923V155.903C214.604 155.333 214.864 154.743 215.134 154.183C215.354 153.733 215.584 153.283 215.804 152.833V152.803C216.154 152.133 216.484 151.463 216.804 150.793C217.284 149.823 217.834 148.803 218.554 147.583L218.584 147.523L218.634 147.443C218.864 147.053 219.154 146.563 219.454 146.103L219.554 145.953L219.594 145.893C219.724 145.693 219.854 145.503 219.984 145.303C220.164 145.043 220.354 144.783 220.504 144.573L220.554 144.503C220.774 144.213 220.994 143.933 221.234 143.663L221.264 143.643L221.284 143.623L221.314 143.593C221.454 143.443 221.664 143.203 221.884 143.013L222.104 142.823L222.264 142.683C222.334 142.613 222.414 142.553 222.494 142.493L222.514 142.473C222.514 142.473 222.594 142.413 222.634 142.373C222.884 142.173 223.174 141.973 223.544 141.743C223.634 141.683 223.734 141.633 223.834 141.583L223.904 141.553C224.264 141.373 224.594 141.233 224.904 141.153C225.114 141.093 225.344 141.053 225.594 141.023C225.794 141.003 225.974 141.003 226.134 141.023C226.324 141.043 226.554 141.073 226.794 141.153C226.984 141.223 227.174 141.303 227.354 141.403C227.384 141.423 227.424 141.443 227.454 141.463C227.864 141.723 228.234 142.073 228.624 142.603C228.804 142.833 228.964 143.073 229.124 143.343C229.244 143.533 229.324 143.753 229.414 143.963C229.504 144.203 229.544 144.383 229.594 144.593C229.664 144.933 229.704 145.273 229.734 145.623C229.784 146.243 229.734 146.923 229.604 147.613C229.484 148.243 229.284 148.853 229.004 149.433C228.754 149.943 228.474 150.443 228.144 151.013L228.074 151.133L228.034 151.193L228.004 151.233L227.984 151.263C227.724 151.693 227.454 152.133 227.174 152.553C226.984 152.833 226.804 153.103 226.614 153.373C226.514 153.513 226.414 153.653 226.314 153.783L226.294 153.803V153.823L226.204 153.933L226.164 153.983L226.064 154.113C225.834 154.413 225.584 154.723 225.354 155.003L225.324 155.043L225.304 155.073L225.264 155.133L225.224 155.183C225.104 155.333 224.984 155.483 224.854 155.633L224.544 156.013L224.524 156.033L224.424 156.153L224.324 156.273L224.234 156.383L224.214 156.403L224.124 156.513C223.994 156.673 223.864 156.833 223.734 156.993C223.474 157.313 223.204 157.623 222.934 157.933L222.854 158.023L222.514 158.433C222.164 158.843 221.774 159.313 221.324 159.883C220.834 160.483 220.484 160.903 220.154 161.283C219.714 161.793 219.294 162.263 218.974 162.623C218.784 162.833 218.604 163.043 218.414 163.253L218.244 163.443L218.134 163.563L218.064 163.643C217.974 163.743 217.884 163.843 217.794 163.943C217.594 164.173 217.384 164.393 217.174 164.623L217.014 164.793L216.794 165.033L216.514 165.333C215.754 166.163 214.984 167.053 214.164 168.033C213.534 168.783 212.794 169.653 212.114 170.523C211.444 171.363 210.794 172.203 210.124 173.073C209.794 173.503 209.444 173.973 209.124 174.443C208.864 174.833 208.474 175.413 208.164 175.993C207.994 176.313 207.824 176.633 207.654 176.953C207.414 177.573 207.174 178.183 206.924 178.793C206.774 179.173 206.614 179.563 206.454 179.943C206.134 180.763 205.834 181.593 205.614 182.233C205.314 183.073 205.004 184.013 204.694 185.003C204.624 185.233 204.414 185.373 204.194 185.343C203.984 186.223 203.754 187.063 203.524 187.843C203.254 188.763 202.984 189.663 202.694 190.593C202.354 191.703 202.074 192.563 201.784 193.383L201.704 193.603L201.634 193.793C201.844 193.343 202.064 192.903 202.264 192.503L202.434 192.153C202.574 191.883 202.704 191.603 202.834 191.323L202.874 191.243L202.904 191.173C203.014 190.933 203.134 190.693 203.244 190.463C203.494 189.953 203.794 189.363 204.114 188.753C204.574 187.913 205.004 187.163 205.474 186.333C205.644 186.033 205.824 185.733 205.994 185.423L206.604 184.343C207.634 182.513 208.704 180.623 209.884 178.713C210.404 177.883 210.964 177.063 211.504 176.273L211.544 176.213L211.984 175.573C212.824 174.343 213.534 173.333 214.214 172.413C214.664 171.803 215.064 171.273 215.444 170.803L215.464 170.783L215.484 170.763C215.834 170.323 216.264 169.773 216.724 169.253C217.204 168.713 217.634 168.263 218.034 167.883C218.284 167.643 218.534 167.403 218.784 167.173C218.974 166.993 219.174 166.823 219.344 166.683H219.364L219.474 166.573C219.564 166.493 219.654 166.423 219.744 166.353L219.874 166.253C220.024 166.133 220.194 166.003 220.384 165.873C220.714 165.633 221.024 165.433 221.324 165.273C221.684 165.073 222.094 164.883 222.584 164.713C223.004 164.573 223.474 164.483 224.004 164.443C224.484 164.403 224.934 164.443 225.344 164.523C225.514 164.553 225.694 164.613 225.894 164.693C226.134 164.793 226.304 164.863 226.434 164.943C226.494 164.983 226.564 165.013 226.624 165.063C227.074 165.373 227.434 165.733 227.694 166.143C227.784 166.273 227.854 166.433 227.904 166.563L227.944 166.653C228.044 166.883 228.154 167.153 228.214 167.423C228.314 167.863 228.334 168.353 228.284 168.953C228.224 169.643 228.024 170.323 227.834 170.973L227.814 171.053C227.744 171.313 227.634 171.573 227.554 171.793L227.534 171.853L227.484 171.973C227.374 172.253 227.224 172.583 227.034 173.003C226.754 173.603 226.414 174.163 226.094 174.683C225.754 175.223 225.354 175.763 225.044 176.193L225.024 176.223L224.994 176.263C224.614 176.763 224.204 177.303 223.754 177.843C222.904 178.853 222.014 179.833 221.094 180.743C220.754 181.083 220.384 181.413 220.034 181.743L219.984 181.793L219.944 181.823L219.924 181.843L219.894 181.873L219.874 181.893H219.854L219.784 181.973C219.344 182.373 218.824 182.843 218.314 183.263C217.464 183.973 216.504 184.753 216.004 185.153L215.914 185.233L215.604 185.483L215.514 185.553L215.494 185.573L215.454 185.603L215.374 185.663C215.044 185.933 214.544 186.343 214.054 186.703C213.574 187.063 213.094 187.423 212.624 187.783C212.014 188.283 211.584 188.643 211.184 188.983C210.704 189.393 210.224 189.793 209.744 190.203L209.504 190.403C209.104 190.743 208.674 191.103 208.264 191.453C207.764 191.883 207.274 192.333 206.804 192.753L206.744 192.813C206.584 192.963 206.414 193.113 206.254 193.263L206.094 193.413C205.824 193.653 205.564 193.893 205.294 194.133C205.124 194.283 204.964 194.443 204.804 194.603L204.604 194.793C204.464 194.933 204.324 195.083 204.184 195.233L204.124 195.303L204.074 195.353L203.984 195.443C203.884 195.543 203.794 195.653 203.704 195.763L203.684 195.783L203.654 195.813L203.624 195.843L203.574 195.903L203.414 196.093L203.154 196.383L203.084 196.463L203.034 196.523L202.994 196.573L202.924 196.653L202.784 196.813L202.714 196.893L202.654 196.963C202.284 197.393 201.874 197.873 201.484 198.343C200.974 198.953 200.214 199.873 199.494 200.803C199.164 201.253 198.834 201.703 198.504 202.163C198.094 202.803 197.674 203.463 197.364 203.943L197.324 203.993L197.284 204.053L197.264 204.073L197.214 204.163L197.164 204.253C196.774 205.053 196.374 205.833 195.964 206.633C195.134 208.223 194.274 209.733 193.514 211.073L193.284 211.473L193.134 211.733L193.114 211.763C192.674 212.543 192.254 213.283 191.824 214.023C191.424 214.723 190.924 215.543 190.294 216.543L190.164 216.753L189.904 217.153C190.194 216.763 190.544 216.323 191.084 215.693C191.354 215.383 191.614 215.093 191.924 214.753L191.984 214.693L192.034 214.633L192.064 214.603L192.394 214.243L193.224 213.333L193.244 213.313L193.264 213.293L193.324 213.223L193.384 213.153C194.714 211.703 196.084 210.203 197.514 208.763C198.004 208.263 198.484 207.803 198.934 207.363C199.284 207.023 199.654 206.643 199.924 206.373L199.994 206.303L200.084 206.213L200.144 206.153L200.204 206.093L200.324 205.973C201.354 204.923 202.344 203.993 203.084 203.293L203.554 202.853L203.594 202.813L203.684 202.733L203.734 202.693L203.754 202.673L203.874 202.553L203.944 202.483C204.544 201.913 205.234 201.273 205.894 200.673C206.214 200.373 206.544 200.083 206.884 199.793L207.064 199.633L207.334 199.393C207.724 199.043 208.124 198.673 208.494 198.333L208.554 198.273L208.634 198.203L208.684 198.153L209.384 197.503L209.554 197.343C210.194 196.743 210.844 196.153 211.484 195.553C211.904 195.163 212.404 194.713 212.904 194.303L212.934 194.273C213.294 193.983 213.954 193.443 214.594 192.983L214.704 192.903C214.944 192.723 215.194 192.553 215.444 192.383C215.744 192.173 216.054 191.973 216.284 191.833C216.494 191.693 216.724 191.573 216.914 191.473L217.074 191.393C217.314 191.263 217.574 191.123 217.854 190.993C218.434 190.723 219.114 190.403 219.844 190.193C220.154 190.103 220.474 190.033 220.804 189.983C221.014 189.953 221.214 189.933 221.434 189.913C221.574 189.903 221.714 189.903 221.834 189.903H221.924C222.294 189.903 222.694 189.943 223.054 190.033C223.254 190.083 223.474 190.153 223.734 190.263C223.874 190.323 223.984 190.383 224.074 190.433C224.164 190.483 224.244 190.533 224.324 190.593C224.524 190.733 224.704 190.883 224.854 191.033C225.014 191.183 225.144 191.373 225.244 191.513C225.434 191.773 225.544 192.063 225.654 192.343C225.724 192.533 225.784 192.703 225.834 192.903C225.934 193.263 225.944 193.633 225.934 193.963C225.934 194.283 225.894 194.623 225.824 194.963C225.794 195.113 225.764 195.263 225.724 195.413C225.684 195.563 225.634 195.723 225.574 195.913C225.514 196.093 225.444 196.263 225.384 196.423L225.314 196.583C225.274 196.683 225.234 196.783 225.194 196.873V196.893L225.164 196.933C225.024 197.243 224.904 197.483 224.764 197.723C224.584 198.033 224.424 198.283 224.264 198.513C223.864 199.083 223.434 199.673 222.964 200.183C222.554 200.633 222.084 201.023 221.604 201.413C221.204 201.753 220.594 202.253 220.004 202.683L219.894 202.763C219.664 202.933 219.444 203.103 219.214 203.263C218.944 203.453 218.654 203.653 218.314 203.863C217.774 204.213 217.184 204.523 216.704 204.773L216.654 204.793C216.094 205.093 215.554 205.363 214.904 205.673C214.574 205.833 214.244 205.993 213.914 206.143L213.864 206.163L213.784 206.203L213.744 206.223C213.564 206.303 213.384 206.383 213.204 206.473C212.604 206.763 212.004 207.053 211.384 207.353C211.154 207.473 210.914 207.593 210.684 207.713L210.634 207.743L210.544 207.793C210.284 207.923 210.034 208.063 209.774 208.183C209.234 208.453 208.644 208.733 208.034 209.023C207.304 209.373 206.744 209.643 206.194 209.923C205.684 210.193 205.184 210.473 204.714 210.733L204.544 210.823C203.884 211.203 203.374 211.483 202.904 211.723C202.664 211.843 202.434 211.963 202.194 212.083L202.054 212.153C201.744 212.313 201.444 212.473 201.134 212.623C199.964 213.233 198.884 213.813 197.624 214.483C197.114 214.763 196.644 215.023 196.194 215.303L196.004 215.423C195.504 215.733 195.094 215.983 194.704 216.243C194.054 216.683 193.594 216.993 193.214 217.263C192.744 217.603 192.294 217.933 191.874 218.253L191.824 218.293C191.164 218.813 190.484 219.373 189.984 219.773L189.924 219.823L189.844 219.883L189.334 220.303L189.224 220.463L189.104 220.623C188.734 221.113 188.334 221.613 187.854 222.193C187.474 222.633 187.074 223.073 186.634 223.523C186.494 223.673 186.344 223.813 186.204 223.963L186.134 224.033L186.064 224.103C185.794 224.373 185.554 224.613 185.324 224.863C185.034 225.173 184.704 225.533 184.404 225.913L184.244 226.123L184.224 226.153C183.984 226.473 183.704 226.843 183.444 227.223L183.284 227.463C183.164 227.643 183.054 227.813 182.934 227.983C182.864 228.083 182.784 228.183 182.714 228.283C182.614 228.423 182.514 228.553 182.424 228.693C182.034 229.263 181.674 229.793 181.444 230.153C181.144 230.603 180.794 231.143 180.464 231.703C180.244 232.073 180.044 232.443 179.864 232.813C179.744 233.063 179.644 233.263 179.544 233.433C179.404 233.683 179.224 233.923 179.044 234.163C178.964 234.243 178.864 234.303 178.744 234.333C178.574 234.373 178.384 234.353 178.244 234.273C178.094 234.193 177.984 234.043 177.934 233.873C177.894 233.723 177.914 233.573 177.974 233.413C177.854 233.473 177.704 233.453 177.564 233.373C177.264 233.203 177.154 232.793 177.324 232.493C177.434 232.293 177.584 232.063 177.774 231.753C177.774 231.733 177.794 231.713 177.804 231.693L177.954 231.463L177.984 231.423L178.014 231.373C178.304 230.933 178.634 230.403 178.944 229.903C179.284 229.353 179.584 228.773 179.844 228.193C179.964 227.893 180.074 227.533 180.194 227.053C180.304 226.633 180.384 226.233 180.444 225.813C180.504 225.203 180.494 224.583 180.424 223.943C180.304 223.283 180.104 222.653 179.904 222.063C179.714 221.473 179.484 220.853 179.204 220.163C178.704 219.003 178.154 217.883 177.554 216.853C177.204 216.243 176.864 215.683 176.534 215.133L176.454 215.013L176.424 214.963L176.374 214.883L176.354 214.853L176.314 214.783C176.044 214.353 175.784 213.933 175.524 213.533C175.134 212.943 174.784 212.443 174.444 211.973C174.244 211.693 174.034 211.423 173.834 211.153L173.764 211.053C173.604 210.843 173.444 210.623 173.294 210.413C172.974 209.983 172.614 209.463 172.144 208.773C171.854 208.353 171.564 207.863 171.194 207.183L171.144 207.093L171.124 207.063C170.864 206.593 170.544 206.003 170.284 205.433C169.964 204.753 169.694 204.093 169.444 203.413C169.354 203.173 169.284 202.913 169.214 202.673V202.633L169.184 202.593L169.164 202.533C169.084 202.253 169.034 201.973 169.004 201.783L168.974 201.623C168.954 201.483 168.934 201.333 168.924 201.163L168.904 200.973C168.854 200.573 168.874 200.153 168.944 199.653C169.014 199.153 169.124 198.723 169.294 198.333C169.374 198.143 169.464 197.963 169.544 197.773C169.744 197.343 170.034 196.953 170.334 196.563C170.484 196.363 170.674 196.183 170.864 196.043L170.924 195.993H170.944L170.964 195.963C171.174 195.803 171.364 195.663 171.554 195.543C171.874 195.333 172.264 195.163 172.724 195.003C173.034 194.903 173.384 194.843 173.794 194.823H174.054C174.364 194.793 174.664 194.823 174.884 194.863C175.154 194.893 175.404 195.003 175.654 195.103L175.784 195.153C175.934 195.213 176.044 195.273 176.144 195.333C176.244 195.393 176.364 195.473 176.494 195.563L176.554 195.613C176.824 195.813 177.074 196.003 177.304 196.203C177.614 196.483 177.834 196.703 178.014 196.923C178.394 197.353 178.794 197.863 179.254 198.473C179.634 198.973 180.014 199.523 180.414 200.163C180.714 200.623 181.054 201.173 181.344 201.773C181.624 202.333 181.894 202.933 182.164 203.583L182.324 203.953L182.344 203.993V204.013L182.394 204.113C182.564 204.513 182.784 205.033 182.974 205.513C183.404 206.613 183.874 207.923 184.184 209.253C184.484 210.603 184.724 211.973 184.894 213.333C184.974 214.013 185.024 214.623 185.034 215.213C185.044 215.843 185.034 216.503 184.974 217.223C184.934 217.893 184.844 218.573 184.724 219.263C184.604 219.953 184.434 220.593 184.274 221.133C184.184 221.463 184.064 221.803 183.974 222.073L183.944 222.143L183.864 222.383L183.784 222.623L183.754 222.693L183.714 222.803C183.624 223.073 183.544 223.323 183.444 223.573C183.364 223.773 183.284 223.993 183.164 224.263L183.224 224.163C183.804 223.403 184.314 222.703 184.804 222.013C185.324 221.293 185.854 220.523 186.474 219.583C187.194 218.523 188.044 217.233 188.954 215.763C188.984 215.703 189.004 215.643 189.034 215.583C189.354 214.763 189.584 214.093 189.774 213.473C189.954 212.863 190.084 212.183 190.194 211.353C190.274 210.593 190.324 209.993 190.334 209.463C190.334 209.173 190.324 208.873 190.304 208.633V208.553L190.294 208.413C190.274 208.143 190.244 207.853 190.204 207.543C190.154 207.223 190.104 206.913 190.044 206.613C189.974 206.273 189.874 205.943 189.794 205.703C189.594 205.053 189.344 204.413 189.114 203.883C188.964 203.533 188.844 203.263 188.704 202.993C188.634 202.863 188.564 202.723 188.504 202.593L188.424 202.433C188.354 202.293 188.284 202.163 188.214 202.023C187.854 201.313 187.534 200.743 187.234 200.223C186.854 199.573 186.444 198.953 186.084 198.423C185.654 197.783 185.264 197.233 184.894 196.743L184.824 196.653L184.754 196.563C184.274 195.943 183.954 195.543 183.604 195.133L183.584 195.113C183.144 194.603 182.684 194.073 182.224 193.553L181.914 193.203L181.854 193.133C181.514 192.743 181.164 192.353 180.804 191.973C180.594 191.753 180.374 191.533 180.144 191.303C179.934 191.093 179.654 190.813 179.394 190.533C178.874 189.963 178.374 189.363 177.924 188.743C177.744 188.503 177.574 188.253 177.394 188.003L177.334 187.923L177.234 187.783C177.094 187.593 176.924 187.343 176.754 187.083L176.714 187.023C176.634 186.893 176.544 186.763 176.484 186.633C176.384 186.453 176.304 186.283 176.214 186.103C176.044 185.763 175.904 185.413 175.724 184.983C175.434 184.253 175.334 183.463 175.254 182.783C175.224 182.483 175.214 182.193 175.214 181.903V181.843V181.743C175.214 181.363 175.234 180.993 175.284 180.633C175.314 180.443 175.344 180.263 175.374 180.073C175.454 179.633 175.594 179.193 175.804 178.773C176.004 178.383 176.284 177.993 176.634 177.623C176.754 177.483 176.914 177.373 177.064 177.273C177.154 177.213 177.234 177.153 177.314 177.103C177.604 176.923 177.914 176.783 178.234 176.693C178.704 176.563 179.204 176.553 179.784 176.653C179.944 176.673 180.094 176.723 180.254 176.763H180.294L180.364 176.793C180.594 176.863 180.814 176.933 181.014 177.003C181.204 177.083 181.394 177.173 181.574 177.283C181.784 177.403 181.994 177.533 182.184 177.663C182.504 177.873 182.744 178.043 182.984 178.223C183.684 178.763 184.274 179.263 184.784 179.753C184.994 179.953 185.204 180.173 185.454 180.463C185.684 180.733 185.914 181.003 186.144 181.273C186.994 182.303 187.834 183.483 188.714 184.873C189.514 186.133 190.174 187.313 190.724 188.473C190.984 188.993 191.314 189.693 191.614 190.403V190.423L191.644 190.483V190.503C191.884 191.063 192.174 191.753 192.404 192.413C192.904 193.853 193.254 195.183 193.474 196.483C193.604 197.273 193.714 198.083 193.804 198.773C193.894 199.523 193.934 200.273 193.964 200.913C194.024 202.243 193.984 203.633 193.844 205.063C193.734 206.203 193.584 207.213 193.374 208.153C194.244 206.503 194.664 205.713 195.014 205.013C195.464 204.143 195.934 203.173 196.544 201.873C196.544 201.813 196.564 201.753 196.594 201.703C196.764 201.363 196.934 201.023 197.104 200.683C197.324 200.213 197.534 199.753 197.754 199.283C197.864 199.033 197.974 198.793 198.084 198.543C198.154 198.353 198.224 198.163 198.294 197.973C198.454 197.543 198.574 197.143 198.674 196.733C198.874 195.893 199.014 195.153 199.104 194.463C199.144 193.983 199.164 193.503 199.144 192.993C199.114 192.393 199.084 191.953 199.034 191.553C198.934 190.943 198.804 190.353 198.674 189.813C198.604 189.493 198.514 189.193 198.434 188.913C198.354 188.653 198.254 188.393 198.164 188.163C197.934 187.623 197.674 187.113 197.394 186.563C197.354 186.503 197.324 186.433 197.294 186.373V186.343L197.254 186.283V186.263L197.214 186.213L197.184 186.153L197.154 186.103L197.134 186.073L197.104 186.023L197.084 185.993C196.924 185.673 196.714 185.283 196.514 184.923C195.894 183.853 195.154 182.853 194.384 181.833C193.704 180.953 192.924 180.043 191.954 178.973C191.544 178.523 191.124 178.063 190.714 177.603L190.434 177.283L190.384 177.223L190.334 177.163L190.294 177.113C190.024 176.813 189.704 176.453 189.384 176.123C188.374 175.093 187.454 174.213 186.564 173.423L186.414 173.293H186.394L186.364 173.253C185.474 172.473 184.554 171.663 183.704 170.763C183.494 170.543 183.294 170.313 183.084 170.053L182.944 169.883C182.764 169.663 182.574 169.423 182.404 169.173C182.184 168.863 182.004 168.583 181.854 168.313C181.654 167.973 181.504 167.663 181.394 167.423C181.114 166.833 180.884 166.193 180.704 165.513C180.664 165.353 180.624 165.203 180.594 165.043C180.584 164.983 180.574 164.923 180.564 164.863L180.544 164.723C180.524 164.613 180.504 164.503 180.504 164.403V164.363C180.494 164.233 180.474 164.103 180.474 163.973C180.474 163.593 180.504 163.223 180.564 162.853C180.644 162.413 180.794 162.003 181.014 161.663C181.194 161.393 181.394 161.153 181.604 160.943C181.744 160.803 181.924 160.673 182.034 160.603L182.104 160.553C182.234 160.453 182.364 160.383 182.474 160.333C182.734 160.203 183.044 160.053 183.394 159.943C183.584 159.883 183.814 159.853 184.114 159.823C184.284 159.803 184.454 159.793 184.634 159.783C184.974 159.763 185.334 159.783 185.744 159.843C186.144 159.893 186.444 159.953 186.704 160.013C187.194 160.123 187.644 160.323 188.184 160.593C188.314 160.663 188.444 160.733 188.564 160.803C188.974 161.033 189.374 161.303 189.754 161.563C190.334 161.963 190.944 162.393 191.514 162.883C191.954 163.273 192.374 163.673 192.894 164.193C193.304 164.603 193.734 165.063 194.204 165.603C194.584 166.033 195.024 166.553 195.454 167.103C195.504 167.173 195.554 167.243 195.614 167.303L195.654 167.363L195.774 167.513C195.774 167.513 195.814 167.553 195.824 167.583L195.854 167.623L196.014 167.833L196.164 168.043C196.564 168.583 196.924 169.123 197.224 169.633C197.604 170.283 197.934 170.863 198.214 171.413C198.454 171.873 198.714 172.423 199.064 173.193C199.604 174.423 200.054 175.703 200.464 176.913C200.664 177.503 200.864 178.133 201.014 178.783C201.164 179.463 201.294 180.163 201.424 180.883C201.554 181.613 201.644 182.263 201.724 182.863C201.794 183.453 201.834 184.023 201.864 184.553L201.884 184.813C201.924 185.403 201.974 186.083 201.974 186.753C201.974 187.003 201.974 187.263 201.974 187.513L202.014 187.253L202.164 186.733C202.634 185.063 203.084 183.283 203.534 181.283C203.594 181.003 203.664 180.723 203.724 180.443V180.403L203.734 180.373V180.343L203.764 180.263L203.794 180.143C203.914 179.613 204.044 179.063 204.154 178.523C204.344 177.573 204.534 176.623 204.724 175.613L204.754 175.463L204.784 175.313C204.734 175.283 204.694 175.243 204.664 175.183C204.584 175.043 204.584 174.923 204.604 174.783V174.743V174.713C204.644 174.343 204.674 173.973 204.704 173.673L204.724 173.513C204.734 173.383 204.754 173.253 204.754 173.123L204.784 172.403C204.784 172.303 204.784 172.193 204.784 172.093V172.023V171.993C204.784 171.933 204.784 171.883 204.784 171.823C204.784 171.673 204.784 171.513 204.764 171.363V171.283C204.744 170.923 204.704 170.543 204.684 170.273V170.233C204.594 169.673 204.494 169.153 204.384 168.703C204.284 168.263 204.134 167.803 203.924 167.253C203.454 166.163 202.814 165.073 201.964 163.933C201.874 163.813 201.774 163.693 201.684 163.573C201.654 163.543 201.634 163.513 201.614 163.483C201.354 163.163 201.114 162.863 200.874 162.583C200.524 162.183 200.124 161.733 199.674 161.253C198.844 160.373 197.984 159.503 197.044 158.603C196.114 157.703 195.214 156.873 194.374 156.133L194.234 156.013C193.994 155.803 193.754 155.593 193.514 155.383L193.314 155.213L193.144 155.063L193.094 155.023L192.984 154.923C192.494 154.493 191.994 154.063 191.494 153.623L191.354 153.493C190.514 152.743 189.644 151.973 188.844 151.123C188.684 150.953 188.534 150.793 188.374 150.623C187.694 149.913 186.994 149.183 186.364 148.383L186.314 148.323L186.254 148.253C186.174 148.153 186.094 148.043 186.014 147.943L186.084 147.973C185.654 147.473 185.274 146.953 184.974 146.443L184.874 146.283C184.744 146.063 184.614 145.853 184.504 145.633L184.484 145.583C184.354 145.323 184.174 144.953 184.064 144.613C183.904 144.103 183.804 143.723 183.754 143.383C183.724 143.163 183.694 142.943 183.684 142.713C183.674 142.453 183.704 142.203 183.744 142.023C183.814 141.583 183.974 141.163 184.204 140.803C184.414 140.483 184.694 140.193 185.064 139.923C185.254 139.783 185.484 139.623 185.744 139.513C186.104 139.353 186.414 139.243 186.744 139.163C187.104 139.093 187.454 139.043 187.784 139.023C188.164 138.993 188.434 139.003 188.664 139.023H188.764C188.904 139.053 189.094 139.073 189.264 139.103C189.404 139.123 189.544 139.153 189.774 139.213C190.034 139.273 190.314 139.363 190.584 139.463L190.734 139.523H190.764C191.024 139.643 191.314 139.753 191.564 139.893H191.584L191.604 139.923L191.654 139.953L191.714 139.983L191.804 140.033C191.944 140.113 192.124 140.223 192.394 140.393C192.984 140.773 193.474 141.123 193.964 141.483C194.444 141.853 194.944 142.273 195.434 142.713C195.914 143.153 196.344 143.593 196.704 143.983C197.144 144.433 197.564 144.943 197.874 145.313L197.924 145.373C198.334 145.863 198.694 146.363 199.054 146.853L199.074 146.883C199.864 147.973 200.544 149.043 201.074 150.063C201.714 151.273 202.264 152.373 202.744 153.413C203.354 154.713 203.814 155.833 204.204 156.943C204.634 158.183 204.974 159.343 205.254 160.483L205.274 160.553L205.294 160.633V160.663C205.424 161.163 205.554 161.743 205.674 162.323V162.353L205.684 162.393C205.804 162.993 205.924 163.603 205.994 164.213C206.034 164.603 206.074 164.983 206.104 165.393C206.094 164.993 206.104 164.603 206.134 164.173V163.903C206.234 162.223 206.284 160.473 206.304 158.403V158.163L206.294 158.033V157.963L206.284 157.943V157.903V157.853C206.204 157.013 206.104 156.063 206.054 155.163C206.034 154.843 206.014 154.523 205.994 154.203L205.974 153.923C205.904 153.513 205.834 153.113 205.754 152.733C205.664 152.273 205.574 151.823 205.474 151.363C205.384 150.933 205.284 150.473 205.154 150.043C205.034 149.603 204.854 149.133 204.764 148.883L204.694 148.703C204.504 148.163 204.284 147.603 204.064 147.043C203.764 146.343 203.384 145.563 202.854 144.613L202.754 144.443V144.423C202.554 144.083 202.384 143.763 202.224 143.453L202.044 143.113L201.984 142.993L201.904 142.843C201.794 142.633 201.684 142.423 201.584 142.213L201.464 141.993L201.354 141.773L201.334 141.733C201.194 141.473 201.064 141.213 200.934 140.953C200.754 140.593 200.584 140.233 200.404 139.873L200.294 139.653C200.154 139.363 200.004 139.063 199.864 138.773L199.844 138.733C199.554 138.143 199.314 137.653 199.084 137.143C199.014 136.983 198.944 136.833 198.874 136.673L198.844 136.613C198.734 136.363 198.624 136.123 198.514 135.883C198.384 135.613 198.264 135.353 198.134 135.083L197.894 134.593C197.524 133.823 197.144 132.983 196.764 132.103C196.404 131.253 195.994 130.273 195.624 129.303C195.304 128.453 195.074 127.613 194.834 126.673C194.714 126.213 194.594 125.713 194.494 125.223C194.454 125.023 194.424 124.833 194.384 124.633L194.364 124.513C194.344 124.413 194.334 124.323 194.324 124.223L194.304 124.083V123.983L194.284 123.953C194.274 123.873 194.264 123.793 194.254 123.723C194.154 122.773 194.074 121.843 194.184 120.893V120.763L194.204 120.723V120.693V120.663C194.204 120.573 194.224 120.473 194.244 120.383L194.284 120.183L194.324 119.983C194.334 119.903 194.354 119.833 194.374 119.763L194.394 119.663C194.444 119.423 194.504 119.203 194.584 118.983C194.704 118.643 194.844 118.323 195.014 118.033C195.094 117.893 195.194 117.763 195.284 117.633L195.314 117.583L195.334 117.563V117.543C195.514 117.323 195.674 117.103 195.854 116.913L195.884 116.893C196.014 116.753 196.174 116.573 196.364 116.423C196.604 116.223 196.834 116.043 197.074 115.873C197.124 115.833 197.184 115.793 197.244 115.763H197.264L197.294 115.733L197.364 115.693C197.594 115.543 197.854 115.403 198.174 115.273C198.454 115.163 198.694 115.073 198.944 115.003C199.384 114.893 199.854 114.873 200.444 114.953C200.974 115.023 201.494 115.203 201.974 115.473L202.034 115.513C202.254 115.653 202.434 115.773 202.624 115.913C202.814 116.063 203.034 116.233 203.254 116.423C203.454 116.603 203.624 116.773 203.764 116.943C203.934 117.133 204.094 117.343 204.284 117.603C204.444 117.813 204.574 118.033 204.664 118.173L204.704 118.243C204.834 118.453 204.924 118.603 205.004 118.753C205.174 119.063 205.404 119.473 205.604 119.923C205.774 120.283 205.944 120.693 206.054 120.963V120.983L206.074 121.003V121.023L206.094 121.043L206.164 121.223C206.484 122.003 206.764 122.853 207.044 123.873C207.154 124.273 207.264 124.743 207.374 125.303C207.444 125.663 207.494 126.033 207.544 126.363V126.433L207.584 126.653V126.703L207.594 126.743V126.783L207.604 126.843C207.654 127.183 207.714 127.653 207.754 128.093L207.774 128.253V128.303C207.814 128.673 207.854 129.103 207.864 129.503C207.884 130.073 207.894 130.553 207.894 130.963C207.894 131.463 207.894 131.973 207.894 132.473C207.894 132.953 207.884 133.433 207.864 133.913C207.864 134.243 207.844 134.743 207.804 135.233C207.734 136.063 207.634 137.013 207.504 138.133C207.504 138.173 207.504 138.223 207.494 138.263C207.474 138.453 207.454 138.633 207.424 138.823V138.853C207.324 139.643 207.184 140.453 207.054 141.153L207.034 141.233L206.974 141.563L206.904 141.933V141.983C206.834 142.323 206.774 142.653 206.714 142.993C206.634 143.493 206.574 143.983 206.524 144.333C206.504 144.493 206.484 144.663 206.464 144.823C206.444 144.993 206.424 145.163 206.404 145.323C206.314 146.213 206.284 147.103 206.274 147.853C206.364 148.153 206.434 148.453 206.514 148.823C206.694 149.673 206.804 150.553 206.904 151.403V151.433L206.924 151.563C207.014 152.373 207.094 153.183 207.164 153.973V154.053L207.174 154.143V154.183V154.223V154.273C207.274 155.283 207.334 156.143 207.364 156.973C207.444 158.823 207.464 160.673 207.444 162.473L207.464 162.363C207.594 161.763 207.704 161.193 207.814 160.553C207.884 160.143 207.964 159.743 208.044 159.333V159.283L208.084 159.113L208.144 158.813C208.334 157.833 208.484 156.813 208.614 155.903V155.863L208.624 155.813V155.763L208.644 155.683V155.613L208.664 155.583V155.553L208.724 155.193C208.794 154.733 208.854 154.263 208.914 153.803L208.954 153.443L209.004 153.033C209.044 152.653 209.094 152.273 209.134 151.893C209.184 151.453 209.264 150.923 209.374 150.233V150.163C209.454 149.713 209.514 149.263 209.574 148.813L209.594 148.673C209.684 148.003 209.794 147.223 209.924 146.453C210.154 145.093 210.394 143.913 210.654 142.843C210.894 141.823 211.164 140.783 211.444 139.723L211.544 139.343L211.624 139.053C211.914 137.933 212.204 136.813 212.484 135.683L212.554 135.423C212.784 134.513 213.094 133.263 213.434 132.103C213.594 131.563 213.764 131.013 213.974 130.423C214.164 129.873 214.394 129.213 214.694 128.493C214.864 128.083 214.994 127.803 215.104 127.553C215.214 127.333 215.324 127.103 215.434 126.893V126.873C215.614 126.563 215.744 126.363 215.844 126.203L215.864 126.173L215.894 126.123L216.014 125.943C216.154 125.733 216.304 125.523 216.454 125.323L216.484 125.283L216.554 125.193C216.884 124.753 217.324 124.183 217.874 123.733C218.144 123.503 218.414 123.303 218.764 123.063C219.304 122.693 219.814 122.453 220.324 122.353C220.784 122.263 221.214 122.263 221.624 122.353C221.834 122.403 222.044 122.483 222.294 122.633L222.344 122.563Z" fill="#00AE35"/>
</g>
<g clip-path="url(#clip3_107_3451)">
<path fill-rule="evenodd" clip-rule="evenodd" d="M121.501 39.5165C121.591 39.5065 121.841 56.8465 130.291 72.7665C139.451 90.0165 160.561 94.0265 178.981 91.7865C187.021 90.8065 180.801 91.5465 181.701 91.4165L173.821 23.6465C148.191 29.5465 121.501 39.5165 121.501 39.5165Z" fill="#CE0001"/>
<path fill-rule="evenodd" clip-rule="evenodd" d="M155.831 4.37742C155.831 4.37742 116.821 15.6274 121.751 43.0774C126.681 70.5274 144.571 84.1574 164.231 86.5774C169.311 87.1974 175.131 87.0274 181.061 86.0174L171.131 0.607422C166.441 1.38742 161.361 2.61742 155.831 4.37742Z" fill="#EA0001"/>
<path fill-rule="evenodd" clip-rule="evenodd" d="M171.051 39.627C173.671 59.377 175.581 74.4871 173.661 75.6571C159.111 84.4871 105.031 34.667 154.781 14.287C171.021 7.63705 169.481 26.997 171.051 39.627Z" fill="#CE0001"/>
<path fill-rule="evenodd" clip-rule="evenodd" d="M167.541 63.8874C161.301 75.2874 171.471 75.8774 169.571 68.9974C169.211 67.6774 168.561 66.0074 167.541 63.8874ZM162.561 61.1274C162.951 63.4474 163.101 65.2374 163.081 66.6074C162.961 73.7374 153.381 70.3174 162.561 61.1274ZM157.131 56.9774C145.831 63.3974 154.161 69.2374 156.171 62.3974C156.551 61.0874 156.891 59.3174 157.131 56.9774ZM152.431 51.7174C151.691 53.9474 150.991 55.6074 150.331 56.8074C146.901 63.0574 140.011 55.5674 152.431 51.7174ZM148.851 46.0274C135.861 46.5274 140.571 55.5474 145.511 50.3974C146.451 49.4074 147.561 47.9974 148.851 46.0274ZM147.101 40.6774C145.271 42.1574 143.781 43.1574 142.581 43.8074C136.301 47.1974 134.591 37.1674 147.101 40.6774ZM147.451 36.2674C138.011 27.3374 134.861 37.0074 141.991 36.9374C143.351 36.9274 145.141 36.7274 147.451 36.2674ZM149.871 31.7574C147.621 31.0574 145.961 30.3774 144.751 29.7474C138.441 26.4274 145.821 19.4174 149.871 31.7574ZM155.211 27.7774C153.201 26.5474 151.751 25.4874 150.741 24.5674C145.441 19.7974 154.311 14.8074 155.211 27.7774ZM161.771 25.1974C164.161 12.4274 154.321 15.0174 158.251 20.9674C159.001 22.1074 160.141 23.4974 161.771 25.1974Z" fill="#DECB91"/>
</g>
<g clip-path="url(#clip4_107_3451)">
<path fill-rule="evenodd" clip-rule="evenodd" d="M0.321289 151.01C5.20129 146.13 8.83129 142.6 8.83129 142.6C12.6813 138.69 30.4313 149.82 45.6213 164.41C60.3213 178.53 70.9613 197.32 66.7213 205.5C65.7713 207.33 64.5913 209.16 63.2313 210.97C50.3613 210.59 35.3713 204.26 22.6113 192.64C8.88129 180.13 1.00129 164.49 0.321289 151.01Z" fill="#FDBF1E"/>
<path fill-rule="evenodd" clip-rule="evenodd" d="M10.3715 145.311C10.3715 145.311 8.20147 158.321 15.5115 170.931C22.8215 183.541 41.1315 199.861 48.8515 203.171C56.5715 206.471 66.5215 208.411 66.2415 203.171C64.8015 176.931 21.7615 133.481 10.3715 145.311Z" fill="#FDC121"/>
<path fill-rule="evenodd" clip-rule="evenodd" d="M17.2015 177.591C36.5915 206.481 58.4315 209.921 65.9715 206.481C68.3415 205.401 75.6015 194.911 45.1115 162.251C29.3315 145.351 13.2715 137.741 7.90147 143.301C3.89147 147.451 5.83147 160.661 17.2015 177.591ZM21.1215 177.121C12.1015 163.681 8.18147 149.901 11.3615 146.611C15.6215 142.201 30.7515 151.541 43.2715 164.951C67.4515 190.861 65.8015 202.981 63.9215 203.841C57.9515 206.571 36.5115 200.041 21.1315 177.121H21.1215Z" fill="#F5EBCE"/>
<path fill-rule="evenodd" clip-rule="evenodd" d="M28.681 149.181L36.931 172.771C38.951 168.821 40.201 163.901 42.111 159.861C42.441 160.201 43.211 160.711 43.541 161.051C41.591 165.181 39.831 170.001 37.721 173.991L58.211 180.901C58.691 181.711 59.151 182.531 59.601 183.341C52.831 181.211 45.971 178.501 39.091 175.751C48.021 185.181 57.041 194.421 66.201 202.801C66.201 202.921 66.221 203.041 66.231 203.161C66.271 203.911 66.101 204.521 65.761 204.991C56.641 195.741 47.621 186.041 38.481 176.891C40.541 183.861 43.491 190.921 46.241 197.701C46.951 199.461 47.511 201.131 48.121 202.821C47.601 202.571 46.081 202.551 45.491 202.211C42.321 194.361 39.941 184.311 36.811 175.941C34.761 180.351 33.091 185.181 31.061 189.611C30.501 189.071 29.941 188.531 29.391 187.981C31.511 183.511 33.941 179.211 36.031 174.721C28.721 172.011 21.251 169.741 13.741 167.471C13.461 166.861 13.211 166.241 12.971 165.641L34.661 172.961L10.251 146.271C10.311 145.651 10.371 145.311 10.371 145.311C10.491 145.191 10.611 145.081 10.741 144.971L35.271 171.821L26.511 147.061C27.071 147.391 28.111 148.821 28.691 149.181H28.681Z" fill="#F5EBCE"/>
</g>
<defs>
<clipPath id="clip0_107_3451">
<rect width="93.43" height="95.7" fill="white" transform="translate(256.249 120.973)"/>
</clipPath>
<clipPath id="clip1_107_3451">
<rect width="67.95" height="69.7" fill="white" transform="translate(78.9639 119.822)"/>
</clipPath>
<clipPath id="clip2_107_3451">
<rect width="60.75" height="119.57" fill="white" transform="translate(168.964 114.822)"/>
</clipPath>
<clipPath id="clip3_107_3451">
<rect width="61.82" height="91.75" fill="white" transform="translate(121.321 0.607422)"/>
</clipPath>
<clipPath id="clip4_107_3451">
<rect width="68.12" height="69.47" fill="white" transform="translate(0.321289 141.5)"/>
</clipPath>
</defs>
</svg>
