<svg width="94" height="32" viewBox="0 0 94 32" fill="none" xmlns="http://www.w3.org/2000/svg">
<path d="M62.8541 22.1847C62.0335 22.1847 61.3958 22.2975 60.8053 22.5323C58.539 23.4425 57.4123 26.2404 57.5028 28.4103C57.5952 30.6238 59.001 31.9636 61.269 31.9982C62.6693 32.02 63.9428 31.4903 64.8613 30.5328C65.9916 29.3532 66.6492 27.5328 66.5768 25.7853C66.4826 23.5299 65.0768 22.1828 62.8541 22.1828V22.1847ZM59.7111 28.5941C59.5716 26.9267 60.423 23.8503 62.6168 23.6519C62.6621 23.6482 62.7037 23.6482 62.7454 23.6464C64.028 23.6883 64.3232 24.8679 64.3812 25.5778C64.5171 27.2088 63.6439 30.3508 61.49 30.5455C61.4483 30.5492 61.4103 30.5492 61.3705 30.551C60.0191 30.5073 59.7582 29.1748 59.7093 28.5941H59.7111Z" fill="#231F20"/>
<path d="M85.8405 22.6452C85.4275 22.3904 84.8786 22.2283 84.2971 22.1883C84.1775 22.181 84.0562 22.1792 83.933 22.181C83.27 22.1683 82.5743 22.3012 81.8805 22.5815C79.8444 23.4043 78.4477 25.4704 78.3209 27.846C78.2575 29.0437 78.5817 30.0832 79.2593 30.855C79.877 31.5577 80.7701 31.889 81.7048 31.9618C81.7048 31.9618 81.8842 31.9782 82.1668 31.9763C82.7718 31.9854 84.1504 31.9072 85.1286 31.1281C85.634 30.7258 85.7844 29.8119 85.3822 29.3004L85.3786 29.3041C85.3786 29.3041 85.3786 29.3004 85.3768 29.3004C85.3768 29.3004 84.1015 30.3417 82.6559 30.4054C82.4838 30.4017 82.3081 30.3908 82.1251 30.358C80.5853 30.0813 80.4585 28.6014 80.4585 28.1991C80.5563 28.1991 80.6541 28.2009 80.752 28.1991C82.8207 28.2027 84.6685 27.6475 85.7029 26.7137C86.3659 26.1148 86.7626 25.5669 86.8296 24.5347C86.913 23.2405 85.846 22.6452 85.8405 22.6434V22.6452ZM80.6016 26.8793C80.9241 25.4631 81.8244 24.5566 82.1704 24.3126C82.7012 23.9413 83.8931 23.3752 84.625 23.9358C84.8061 24.0742 84.9148 24.3709 84.8931 24.6512C84.8496 25.1973 84.3949 25.7525 83.6413 26.1785C82.5925 26.7701 81.5074 26.883 80.8643 26.8903C80.7574 26.8903 80.6668 26.8848 80.598 26.8812L80.6016 26.8793Z" fill="#231F20"/>
<path d="M11.0608 16.6781C10.9249 16.6781 10.7927 16.6781 10.6641 16.6781C8.74023 16.6781 7.55731 16.9366 7.55731 16.9366L4.97408 31.6814H6.26207C6.8798 31.6814 7.3037 31.3884 7.43231 30.6511C7.53195 30.0832 8.2783 25.8072 8.32721 25.5341C8.84893 25.5632 9.32717 25.5814 9.88331 25.5796C13.3651 25.5705 15.4537 23.3806 15.8577 21.2089C16.432 18.1198 13.9266 16.7109 11.0572 16.6799L11.0608 16.6781ZM8.6243 23.8521L9.58803 18.3401C9.58803 18.3401 9.97207 18.2381 10.6786 18.2308C10.7909 18.2308 10.9104 18.2363 11.0372 18.2418C12.4376 18.3164 13.9502 18.9626 13.4955 21.1361C13.3053 22.0445 12.6477 22.9365 11.8742 23.3861C10.7474 24.0414 9.04276 23.9049 8.62248 23.8503L8.6243 23.8521Z" fill="#231F20"/>
<path d="M43.4672 22.2993C41.6864 22.1573 40.6702 23.3042 40.0144 24.3582C39.9474 23.6955 39.7336 23.1804 39.3749 22.8218C39.0253 22.4741 38.538 22.3012 37.9746 22.2884C36.4312 22.2575 35.4367 23.255 34.6795 24.6185C34.6867 24.5657 34.6958 24.5111 34.703 24.4601C34.8352 23.4953 34.7827 23.1312 34.4929 22.7526C34.4929 22.7526 34.232 22.3721 33.4838 22.4031C33.2139 22.394 32.8716 22.4377 32.4404 22.5888C32.6868 22.8673 32.6868 23.3988 32.4567 25.0208C32.4422 25.1263 31.3807 31.2409 31.3807 31.2409C31.3807 31.2409 31.3118 31.656 31.743 31.656H33.4041C33.4041 31.656 33.6215 30.369 33.6614 30.1596C33.848 29.3059 33.9929 28.4212 34.52 27.1761C35.6033 24.6203 37.2953 23.5681 37.8098 24.1543C37.9837 24.3527 38.0054 24.846 37.9022 25.5323L36.9058 31.2391C36.9058 31.2391 36.837 31.6541 37.2681 31.6541H38.9275L39.1412 30.409C39.4963 28.2719 39.9981 27.0632 39.9981 27.0632C40.9546 24.7568 42.2426 23.7884 42.7933 23.9741C42.9273 24.0196 43.1628 24.1488 43.2625 24.5821C43.3186 24.8496 43.3222 25.2884 43.2407 25.7762C43.152 26.4479 42.7281 28.3156 42.5342 29.7173C42.402 30.6821 42.4545 31.0461 42.7444 31.4248C42.7444 31.4248 43.0052 31.8052 43.7534 31.7743C44.0233 31.7834 44.3657 31.7397 44.7968 31.5886C44.5504 31.3101 44.5215 30.7167 44.7733 29.1457C44.9272 28.1882 45.1464 27.1633 45.1464 27.1633C45.4562 25.647 45.5613 24.3509 45.2352 23.5536C44.8367 22.5797 43.8965 22.3321 43.4708 22.2993H43.4672Z" fill="#231F20"/>
<path d="M74.7649 22.3012C73.0023 22.161 71.8863 23.275 71.1056 24.6421C71.1146 24.5821 71.1237 24.5202 71.1328 24.4619C71.265 23.4971 71.1907 23.0548 70.9226 22.7544C70.4063 22.1756 69.3031 22.4395 68.8702 22.5924C69.1165 22.8709 69.1165 23.4025 68.8865 25.0244C68.8557 25.2447 68.8194 25.4795 68.7796 25.6961H68.7832L67.8213 31.2427C67.8213 31.2427 67.7525 31.6578 68.1836 31.6578H69.8411C69.8411 31.6578 70.0585 30.3708 70.0984 30.1614C70.285 29.3077 70.4987 28.3975 71.015 27.1488C72.0856 24.5602 73.6616 23.7702 74.1489 23.9886C74.3464 24.0778 74.4949 24.2781 74.5583 24.5839C74.6145 24.8515 74.6181 25.2902 74.5366 25.778C74.4478 26.4497 74.0239 28.3174 73.8301 29.7191C73.6979 30.6839 73.7504 31.048 74.0403 31.4266C74.0403 31.4266 74.3011 31.807 75.0493 31.7761C75.3192 31.7852 75.6616 31.7415 76.0927 31.5904C75.8463 31.3119 75.8174 30.7185 76.0692 29.1475C76.2231 28.19 76.4423 27.1651 76.4423 27.1651C76.7521 25.6488 76.8644 24.3491 76.5311 23.5554C76.1235 22.5833 75.1471 22.3321 74.7667 22.303L74.7649 22.3012Z" fill="#231F20"/>
<path d="M23.9226 22.6598C23.3031 22.698 22.5332 22.7653 22.5332 22.7653L22.3448 23.8612C22.285 24.1998 22.2107 24.5693 22.1365 24.9334C21.9825 25.5414 21.7778 26.2131 21.4336 27.0268C20.3503 29.5826 18.9011 30.3253 18.3558 30.207C18.1765 30.1687 17.9863 30.014 17.8902 29.5917C17.8341 29.3241 17.8305 28.8854 17.912 28.3975C18.0007 27.7258 18.4246 25.8581 18.6203 24.4565C18.7525 23.4917 18.7 23.1276 18.4102 22.749C18.4102 22.749 18.1493 22.3685 17.4011 22.3995C17.1312 22.3904 16.7888 22.434 16.3577 22.5851C16.6041 22.8636 16.633 23.4571 16.3812 25.028C16.2273 25.9856 16.1548 26.1931 16.0081 27.0104C15.8414 27.9406 15.6693 28.9363 15.7363 29.852C15.8215 30.9861 16.6023 31.7634 17.6837 31.8726C19.3902 32.0455 20.5586 30.895 21.3358 29.5698C21.3285 29.6172 21.3213 29.6663 21.314 29.7118C21.1818 30.6766 21.2343 31.0407 21.5242 31.4193C21.5242 31.4193 21.785 31.7998 22.5332 31.7688C22.8031 31.7779 23.1455 31.7342 23.5766 31.5831C23.3303 31.3046 23.3303 30.7731 23.5603 29.1511C23.5911 28.9309 23.6273 28.6961 23.6672 28.4794H23.6636L24.2704 24.9425L24.544 23.3824C24.6146 22.9893 24.4824 22.6252 23.9208 22.6598H23.9226Z" fill="#231F20"/>
<path d="M55.6533 22.6598C55.0337 22.698 54.2638 22.7653 54.2638 22.7653L54.0754 23.8612C54.0157 24.1998 53.9414 24.5693 53.8671 24.9334C53.7131 25.5414 53.5084 26.2131 53.1642 27.0268C52.081 29.5826 50.6317 30.3253 50.0865 30.207C49.9071 30.1687 49.7169 30.014 49.6209 29.5917C49.5647 29.3241 49.5611 28.8854 49.6426 28.3975C49.7314 27.7258 50.1553 25.8581 50.3509 24.4565C50.4832 23.4917 50.4307 23.1276 50.1408 22.749C50.1408 22.749 49.8799 22.3685 49.1318 22.3995C48.8619 22.3904 48.5195 22.434 48.0883 22.5851C48.3347 22.8636 48.3637 23.4571 48.1119 25.028C47.9579 25.9856 47.8855 26.1931 47.7387 27.0104C47.5721 27.9406 47.4 28.9363 47.467 29.852C47.5521 30.9861 48.3329 31.7634 49.4144 31.8726C51.1208 32.0455 52.2893 30.895 53.0664 29.5698C53.0592 29.6172 53.0519 29.6663 53.0447 29.7118C52.9124 30.6766 52.965 31.0407 53.2548 31.4193C53.2548 31.4193 53.5157 31.7998 54.2638 31.7688C54.5338 31.7779 54.8761 31.7342 55.3073 31.5831C55.0609 31.3046 55.0609 30.7731 55.291 29.1511C55.3218 28.9309 55.358 28.6961 55.3979 28.4794H55.3942L56.0011 24.9425L56.2746 23.3824C56.3453 22.9893 56.213 22.6252 55.6515 22.6598H55.6533Z" fill="#231F20"/>
<path d="M30.4441 16.5488C30.3934 16.5488 30.3336 16.5525 30.263 16.567L28.5909 16.9147L26.3138 29.8847C26.1997 30.6256 26.2432 30.9223 26.3863 31.2136C26.5258 31.4648 26.745 31.6086 26.9841 31.6869C27.2413 31.7688 27.5076 31.787 27.7395 31.7816C28.1797 31.7943 28.5348 31.696 28.5348 31.696C28.5348 31.696 28.3083 30.9842 28.4967 29.8629L30.7086 17.2533C30.772 16.8929 30.8082 16.5488 30.4459 16.5507L30.4441 16.5488Z" fill="#231F20"/>
<path d="M46.9996 12.3711C28.3174 12.3711 11.6314 7.78019 0.349235 0.733598C0.265905 0.682628 0.186198 0.626197 0.104679 0.562485C-0.000389143 0.478749 -0.027562 0.327659 0.0285952 0.202055C0.0793179 0.0691691 0.209748 -0.023669 0.356481 0.00545667C0.454303 0.0273009 0.568429 0.0618876 0.653571 0.0910133C13.1585 4.3561 29.3626 6.76443 46.9978 6.76443C64.633 6.76443 80.8371 4.3561 93.3456 0.0910133C93.4254 0.0618876 93.5395 0.0273009 93.6446 0.00545667C93.784 -0.023669 93.9127 0.0709894 93.9761 0.202055C94.0195 0.325839 94.0032 0.476928 93.8819 0.560665C93.8112 0.624377 93.7297 0.680808 93.6482 0.731778C82.3642 7.78565 65.6764 12.3693 46.9978 12.3693L46.9996 12.3711Z" fill="#8DC63F"/>
</svg>
