<svg width="28" height="28" viewBox="0 0 28 28" fill="none" xmlns="http://www.w3.org/2000/svg">
<path d="M14.077 7.875C14.7831 7.87663 20.1201 7.8995 21.5208 8.24084C22.3494 8.44173 23.0012 9.03459 23.2225 9.78751C23.625 11.1529 23.625 14.0004 23.625 14.0004V14.0086C23.625 14.1825 23.6119 16.8912 23.2225 18.2125C23.0012 18.9654 22.3494 19.5583 21.5208 19.7592C20.1533 20.0932 15.035 20.1225 14.1356 20.125H13.8644C12.9658 20.1225 7.84756 20.0923 6.48006 19.7592C5.65151 19.5583 4.99882 18.9654 4.77746 18.2125C4.41437 16.9794 4.37937 14.5377 4.375 14.0764V13.9236C4.37937 13.4631 4.41437 11.0206 4.77746 9.78751C4.99882 9.03459 5.65151 8.44173 6.47918 8.24084C7.88081 7.8995 13.2178 7.87663 13.923 7.875H14.077ZM12.076 11.375V16.6258L17.0771 14.0004L12.076 11.375Z" fill="#87888C"/>
</svg>
