<svg width="28" height="28" viewBox="0 0 28 28" fill="none" xmlns="http://www.w3.org/2000/svg">
<g clip-path="url(#clip0_1_13)">
<path d="M7.93333 5H14.7086C18.3786 5 20.1934 6.37572 20.1934 9.14682V9.63815C20.1934 10.0116 20.1531 10.385 20.0523 10.7387C19.9514 11.0925 19.8103 11.4266 19.5885 11.7214C19.3667 12.0358 19.0844 12.2913 18.7214 12.5272C18.3584 12.763 17.935 12.9399 17.4107 13.0578C18.4794 13.215 19.3263 13.6081 19.9918 14.2173C20.637 14.8462 20.9798 15.7306 20.9798 16.9098V17.4994C20.9798 18.8948 20.5362 19.9954 19.6288 20.7815C18.7214 21.5676 17.33 21.9803 15.4346 21.9803H7.93333V5ZM10.9984 7.49595V11.9376H13.277C13.8819 11.9376 14.4062 11.9376 14.8901 11.8983C15.3741 11.859 15.7572 11.7803 16.0798 11.6428C16.4025 11.5052 16.6444 11.289 16.8058 10.9942C16.9671 10.6994 17.0679 10.2867 17.0679 9.75607V9.3237C17.0679 8.59653 16.7856 8.12486 16.2008 7.86936C15.6362 7.63353 14.6885 7.49595 13.3778 7.49595H10.9984ZM10.9984 19.504H13.8012C14.4868 19.504 15.0716 19.4844 15.5757 19.4254C16.0798 19.3665 16.5033 19.2682 16.8259 19.0913C17.1486 18.9145 17.4107 18.6983 17.572 18.4035C17.7333 18.1087 17.814 17.696 17.814 17.2046V16.6936C17.814 16.2613 17.7333 15.8879 17.5922 15.5931C17.4309 15.2983 17.1889 15.0624 16.8259 14.8856C16.463 14.7087 15.9992 14.5711 15.4346 14.5121C14.87 14.4335 14.1642 14.4139 13.3374 14.4139H10.9984V19.5237V19.504Z" fill="#87888C"/>
</g>
<defs>
<clipPath id="clip0_1_13">
<rect width="14" height="17" fill="white" transform="translate(7 5)"/>
</clipPath>
</defs>
</svg>
