<svg width="28" height="28" viewBox="0 0 28 28" fill="none" xmlns="http://www.w3.org/2000/svg">
<path d="M14 9.05657C16.7256 9.05657 18.9381 11.2691 18.9381 13.9947C18.9381 16.7202 16.7256 18.9327 14 18.9327C11.2744 18.9327 9.06191 16.7202 9.06191 13.9947C9.06191 11.2691 11.2744 9.05657 14 9.05657ZM14 10.7881C12.2311 10.7881 10.7934 12.2257 10.7934 13.9947C10.7934 15.7636 12.2311 17.2012 14 17.2012C15.7689 17.2012 17.2066 15.7636 17.2066 13.9947C17.2066 12.2257 15.7689 10.7881 14 10.7881ZM14.9887 4.375C16.7202 4.375 17.0836 4.39103 17.9654 4.43379C18.9915 4.48189 19.6863 4.64221 20.3009 4.8827C20.9315 5.12854 21.4713 5.45454 22.0057 5.99431C22.5401 6.52873 22.8661 7.0685 23.1173 7.69913C23.3524 8.30837 23.5181 9.00847 23.5662 10.0346C23.6143 11.0607 23.625 11.3867 23.625 14C23.625 16.6133 23.6143 16.9393 23.5662 17.9654C23.5181 18.9915 23.3578 19.6863 23.1173 20.3009C22.8715 20.9315 22.5455 21.4713 22.0057 22.0057C21.4659 22.5401 20.9315 22.8715 20.3009 23.1173C19.6916 23.3524 18.9915 23.5181 17.9654 23.5662C16.9393 23.6143 16.6133 23.625 14 23.625C11.3867 23.625 11.0607 23.6143 10.0346 23.5662C9.00847 23.5181 8.31371 23.3578 7.69913 23.1173C7.0685 22.8715 6.52873 22.5455 5.99431 22.0057C5.45988 21.4713 5.12854 20.9315 4.88271 20.3009C4.64756 19.6916 4.48189 18.9915 4.43379 17.9654C4.39103 17.0836 4.38034 16.7202 4.375 14.9887V13.0113C4.375 11.2798 4.39103 10.9164 4.43379 10.0346C4.48189 9.00847 4.64222 8.31371 4.88271 7.69913C5.12854 7.0685 5.45454 6.52873 5.99431 5.99431C6.52873 5.45988 7.0685 5.13388 7.69913 4.8827C8.30837 4.64756 9.00847 4.48189 10.0346 4.43379C10.9164 4.39103 11.2798 4.38034 13.0113 4.375H14.9887ZM14.5344 6.10654H13.4656C11.3813 6.10654 11.05 6.12257 10.1147 6.15998C9.17949 6.20273 8.66644 6.35772 8.32975 6.49132C7.88083 6.66768 7.56018 6.87611 7.22349 7.2128C6.8868 7.54949 6.67837 7.87014 6.50201 8.31906C6.36841 8.66109 6.21342 9.1688 6.17067 10.104C6.12792 11.0446 6.11723 11.376 6.11723 13.4549V14.5237C6.11723 16.608 6.13326 16.9393 6.17067 17.8746C6.21342 18.8152 6.36841 19.3229 6.50201 19.6596C6.67837 20.1085 6.8868 20.4291 7.22349 20.7658C7.56018 21.1025 7.88083 21.3109 8.32975 21.4873C8.67178 21.6209 9.17949 21.7759 10.1147 21.8186C11.0553 21.8614 11.3867 21.8721 13.4656 21.8721H14.5344C16.6187 21.8721 16.95 21.8561 17.8853 21.8186C18.8259 21.7759 19.3336 21.6209 19.6703 21.4873C20.1192 21.3109 20.4398 21.1025 20.7765 20.7658C21.1132 20.4291 21.3216 20.1085 21.498 19.6596C21.6316 19.3175 21.7866 18.8098 21.8293 17.8746C21.8721 16.934 21.8828 16.6027 21.8828 14.5237V13.4549C21.8828 11.3706 21.8667 11.0446 21.8293 10.104C21.7866 9.1688 21.6316 8.65575 21.498 8.31906C21.3216 7.87014 21.1132 7.54949 20.7765 7.2128C20.4398 6.87611 20.1192 6.66768 19.6703 6.49132C19.3282 6.35772 18.8205 6.20273 17.8853 6.15998C16.9447 6.11723 16.6133 6.10654 14.5344 6.10654ZM19.1358 7.70447C19.7718 7.70447 20.2902 8.22286 20.2902 8.85883C20.2902 9.49479 19.7718 10.0132 19.1358 10.0132C18.4999 10.0132 17.9815 9.49479 17.9815 8.85883C17.9815 8.22286 18.4999 7.70447 19.1358 7.70447Z" fill="#87888C"/>
</svg>
