<svg width="28" height="28" viewBox="0 0 28 28" fill="none" xmlns="http://www.w3.org/2000/svg">
<path fill-rule="evenodd" clip-rule="evenodd" d="M13.1322 6.77619C9.68819 6.77619 6.77561 9.32419 6.77561 13.0208C6.77561 16.7734 9.71619 19.6014 13.2442 19.6014C16.7168 19.6014 19.6008 17.0248 19.6008 13.3568C19.6008 9.57678 16.6888 6.77619 13.1322 6.77619ZM20.7768 13.3288C20.7768 15.2048 20.1328 16.8288 19.0688 18.1168L23.3513 22.3998L22.5393 23.2393L18.2288 18.9294C16.8848 20.1054 15.1208 20.7774 13.2162 20.7774C9.07219 20.7774 5.59961 17.4168 5.59961 13.0488C5.59961 8.73619 9.07219 5.59961 13.1602 5.59961C17.3888 5.59961 20.7768 8.87678 20.7768 13.3288Z" fill="black"/>
</svg>
